<?xml version="1.0" encoding="utf-8"?>
<!-- Generator: Adobe Illustrator 23.1.0, SVG Export Plug-In . SVG Version: 6.00 Build 0)  -->
<svg version="1.1" xmlns="http://www.w3.org/2000/svg" xmlns:xlink="http://www.w3.org/1999/xlink" x="0px" y="0px"
	 viewBox="0 0 3710 3710" style="enable-background:new 0 0 3710 3710;" xml:space="preserve">
<style type="text/css">
	.st0{fill:#FFFFFF;}
	.st1{opacity:0.3;fill:url(#SVGID_1_);}
	.st2{opacity:0.81;fill:url(#SVGID_2_);}
	.st3{opacity:0.62;fill:#FFFFFF;}
	.st4{opacity:0.79;}
	.st5{fill:url(#SVGID_3_);}
	.st6{opacity:0.76;}
	.st7{fill:url(#SVGID_4_);}
	.st8{fill:url(#SVGID_5_);}
	.st9{fill:url(#SVGID_6_);}
	.st10{opacity:0.61;fill:url(#SVGID_7_);}
	.st11{fill:url(#SVGID_8_);}
	.st12{opacity:0.71;}
	.st13{opacity:0.65;fill:#FFFFFF;}
	.st14{opacity:0.75;fill:#FFFFFF;}
	.st15{opacity:0.75;}
	.st16{fill:url(#SVGID_9_);}
	.st17{fill:url(#SVGID_10_);}
	.st18{fill:url(#SVGID_11_);}
	.st19{fill:url(#SVGID_12_);}
	.st20{fill:url(#SVGID_13_);}
	.st21{fill:url(#SVGID_14_);}
	.st22{fill:url(#SVGID_15_);}
	.st23{fill:url(#SVGID_16_);}
	.st24{fill:url(#SVGID_17_);}
	.st25{fill:url(#SVGID_18_);}
	.st26{fill:url(#SVGID_19_);}
	.st27{fill:url(#SVGID_20_);}
	.st28{opacity:0.6;fill:#FFFFFF;}
	.st29{opacity:0.72;fill:#FFFFFF;}
	.st30{fill:url(#SVGID_21_);}
	.st31{fill:url(#SVGID_22_);}
	.st32{fill:url(#SVGID_23_);}
	.st33{opacity:0.3;}
	.st34{fill:url(#SVGID_24_);}
	.st35{fill:url(#SVGID_25_);}
	.st36{fill:url(#SVGID_26_);}
	.st37{fill:url(#SVGID_27_);}
	.st38{fill:url(#SVGID_28_);}
	.st39{fill:url(#SVGID_29_);}
	.st40{opacity:0.56;fill:#FFFFFF;}
	.st41{fill:url(#SVGID_30_);}
	.st42{fill:url(#SVGID_31_);}
	.st43{fill:url(#SVGID_32_);}
	.st44{fill:url(#SVGID_33_);}
	.st45{fill:url(#SVGID_34_);}
</style>
<g id="Background">
	<g>
		<g>
			<rect class="st0" width="3710" height="3710"/>
		</g>
	</g>
</g>
<g id="Illustration">
	<g>
		<linearGradient id="SVGID_1_" gradientUnits="userSpaceOnUse" x1="3591.7825" y1="4027.2969" x2="1116.5305" y2="953.1893">
			<stop  offset="0" style="stop-color:#B37CFF"/>
			<stop  offset="1" style="stop-color:#F895E7"/>
		</linearGradient>
		<path class="st1" d="M2918.5,2809.7c-57.3,59.6-111.5,98-154.3,128.3c-503.3,356.7-1098.8,252.8-1225.4,227.4
			c-186.9-37.5-548.2-110-809.4-413.4c-395.2-459.1-333.6-1182.4-27.1-1659.8c56.1-87.3,352.2-572,954.2-649.8
			c364.3-47,788.9,47.8,1096.5,302.4C3398.4,1279,3352.5,2358.3,2918.5,2809.7z"/>
		<g>
			<g>
				
					<linearGradient id="SVGID_2_" gradientUnits="userSpaceOnUse" x1="-3686.4319" y1="1557.6975" x2="-2422.8047" y2="1557.6975" gradientTransform="matrix(-0.9966 -8.250000e-02 -8.250000e-02 0.9966 -350.885 511.5666)">
					<stop  offset="0" style="stop-color:#B37CFF"/>
					<stop  offset="1" style="stop-color:#F895E7"/>
				</linearGradient>
				<path class="st2" d="M1867.2,3085.2c0,0,549.6-1388.4,1366-1540.1c14.5-2.7,27.7,8.9,27,23.6
					C3251.9,1740,3147.4,2646.4,1867.2,3085.2z"/>
				<path class="st3" d="M3086.5,1770.3c-41.7,59.5-85.4,117.4-129.7,174.9c-11.1,14.4-22.4,28.6-33.5,42.9
					c-11.3,14.2-22.3,28.6-33.7,42.7l-34.2,42.3c-11.5,14.1-22.7,28.3-34.4,42.1c-23.3,27.8-46.4,55.8-69.9,83.4l-71.3,82.3
					c-48.4,54.1-96.7,108.3-146.5,161l-37.1,39.9c-12.2,13.4-25.2,26.1-37.7,39.3l-75.7,78.3l-77.7,76.4c-13,12.7-25.8,25.5-39,38
					l-40.1,36.9c-26.8,24.5-53.2,49.4-80.4,73.4l-82.7,70.9l-20.8,17.6c-7,5.8-13.8,11.8-20.9,17.4l-42.7,33.8
					c-14.2,11.3-28.6,22.4-42.9,33.5c-14.3,11.2-28.6,22.3-43,33.3c-1.1,0.8-2.7,0.6-3.5-0.5c-0.8-1.1-0.6-2.6,0.4-3.4l0.1-0.1
					c13.8-11.8,27.6-23.5,41.5-35.2c13.9-11.7,27.7-23.4,41.6-35l41.8-34.7c13.8-11.8,27.1-24,40.8-35.9l81.8-71.5l80.1-73.4
					l40.1-36.7c6.7-6.1,13.1-12.5,19.7-18.8l19.7-18.8l78.6-75.1c51.1-51.3,103.1-101.9,152.5-155c24.9-26.3,50.2-52.3,74.3-79.4
					c24.3-26.9,48.8-53.6,72.9-80.7l71.5-81.9c23.6-27.5,46.8-55.4,70.2-83.1c11.8-13.8,23.1-28,34.6-42l34.4-42.1
					c11.5-14,22.6-28.4,33.9-42.5c11.2-14.2,22.6-28.4,33.7-42.7c44.2-57.4,87.9-115.4,129.4-174.7l0,0c0.8-1.1,2.4-1.4,3.5-0.6
					C3087.1,1767.6,3087.3,1769.2,3086.5,1770.3z"/>
			</g>
			<g class="st4">
				
					<linearGradient id="SVGID_3_" gradientUnits="userSpaceOnUse" x1="-2214.041" y1="19.5425" x2="-1450.0782" y2="19.5425" gradientTransform="matrix(-0.9522 -0.3055 -0.3055 0.9522 671.3498 820.1615)">
					<stop  offset="0" style="stop-color:#A737D5"/>
					<stop  offset="1" style="stop-color:#EF497A"/>
				</linearGradient>
				<path class="st5" d="M1734,2288.9c0,0,267.2-1226,1073.7-1861.6c10.5-8.3,26.1-3,29.3,10
					C2887.7,642.6,3151.9,1952.1,1734,2288.9z"/>
				<path class="st3" d="M2722.1,781.1c-9.3,35.6-20,70.6-31.4,105.5c-11.4,34.9-23.4,69.5-36.1,104
					c-25.5,68.8-53.3,136.7-83.2,203.7c-7.4,16.8-15.3,33.4-22.9,50.1c-7.7,16.7-15.9,33.1-23.9,49.6c-7.9,16.6-16.4,32.8-24.7,49.2
					l-12.5,24.5l-12.9,24.3c-34.5,64.8-70.8,128.7-109.9,190.8c-39.3,62-80.1,123.1-124.1,181.9c-5.5,7.4-10.8,14.8-16.3,22.2
					l-16.9,21.8l-16.9,21.8c-5.7,7.2-11.2,14.6-17.1,21.6l-35.1,42.5l-8.8,10.6l-9.1,10.3l-18.2,20.6
					c-96.8,110.4-205.2,210.7-322.3,299c-1,0.7-2.3,0.5-3.1-0.4c-0.7-0.9-0.5-2.3,0.4-3l0,0l42.5-34.7l21.3-17.3l20.6-18.1
					l41.2-36.2l39.8-37.7c6.6-6.3,13.4-12.5,19.9-18.9l19.3-19.5c12.8-13.1,25.8-25.9,38.4-39.1c24.7-26.9,50-53.4,73.5-81.4
					l17.9-20.7l9-10.4l8.6-10.6l34.7-42.5c5.9-7,11.3-14.3,16.9-21.6l16.7-21.7l16.7-21.7c5.5-7.3,10.8-14.8,16.2-22.1
					c43.6-58.7,84-119.7,122.9-181.6c39.1-61.8,75.6-125.2,110.1-189.6l13-24.2l12.6-24.4c8.3-16.3,16.8-32.5,24.8-48.9
					c16.2-32.8,31.9-65.8,47.3-99c30.6-66.4,59.1-133.9,85.3-202.2c13.3-34.1,25.9-68.4,37.9-103c6-17.3,11.8-34.6,17.4-52
					c5.7-17.4,11.1-34.9,16.2-52.4l0,0c0.3-1.2,1.5-1.8,2.7-1.5C2721.7,778.7,2722.4,779.9,2722.1,781.1z"/>
			</g>
		</g>
		<g class="st6">
			
				<linearGradient id="SVGID_4_" gradientUnits="userSpaceOnUse" x1="4515.416" y1="1747.7206" x2="5180.5762" y2="1747.7206" gradientTransform="matrix(0.9817 -0.1903 0.1903 0.9817 -4269.2617 590.2282)">
				<stop  offset="0" style="stop-color:#A737D5"/>
				<stop  offset="1" style="stop-color:#EF497A"/>
			</linearGradient>
			<path class="st7" d="M1314.9,2223.1c0,0-104.2-1087.6-735.8-1720.5c-8.2-8.3-22.2-5.3-26.4,5.6
				C487.6,680.5,123.8,1785.3,1314.9,2223.1z"/>
			<path class="st3" d="M620.6,816.8c10.8,62.7,24.7,125,40.7,186.6c15.7,61.7,33.4,122.9,53,183.5c9.9,30.2,20.1,60.4,30.7,90.4
				c5.1,15.1,10.9,29.9,16.4,44.9l8.3,22.4l8.7,22.2c23.2,59.3,48.2,117.8,75.6,175.3c27.2,57.5,55.8,114.4,87.4,169.7
				c3.9,6.9,7.7,13.9,11.7,20.8l12.2,20.5l12.2,20.5c4.1,6.8,8,13.7,12.4,20.4l25.6,40.3l6.4,10.1l6.7,9.9l13.3,19.8
				c17.4,26.6,36.5,52.1,55,78c9.5,12.8,19.4,25.2,29.1,37.8l14.6,18.9c4.9,6.2,10.2,12.2,15.2,18.4l30.5,36.8l31.8,35.6l15.9,17.8
				l16.6,17.2l33.1,34.4l0,0c0.8,0.9,0.8,2.3-0.1,3.1c-0.8,0.8-2.2,0.8-3,0c-92.3-88.3-175.8-186.1-248.1-291.6l-13.7-19.7l-6.8-9.9
				l-6.5-10.1l-26-40.3c-4.4-6.7-8.4-13.6-12.6-20.4l-12.4-20.6l-12.4-20.6c-4-6.9-7.9-13.9-11.8-20.9c-32-55.4-61-112.5-88.5-170.2
				c-27.4-57.8-52.2-116.8-75.3-176.4L758,1349l-8.3-22.5c-5.5-15-11.1-30-16.2-45.1c-5.1-15.1-10.6-30.2-15.5-45.4
				c-4.8-15.2-9.9-30.4-14.6-45.7c-37.5-122.1-68.7-246.4-87.2-373c-0.2-1.2,0.7-2.3,1.9-2.5C619.3,814.7,620.4,815.5,620.6,816.8
				L620.6,816.8z"/>
		</g>
		<g>
			<linearGradient id="SVGID_5_" gradientUnits="userSpaceOnUse" x1="2328.6934" y1="422.2367" x2="-622.3833" y2="5776.3384">
				<stop  offset="0" style="stop-color:#2B3582"/>
				<stop  offset="1" style="stop-color:#150E42"/>
			</linearGradient>
			<path class="st8" d="M754.8,567.4c-9,426.8-38.4,1899-24.4,2420.6c1.5,55.3,39.4,99.6,86.6,101.4
				c233.7,8.9,1090.2,31.6,1472.4,12.9c79.6-3.9,142.9-79.3,144.6-172.5c7.9-448,25.5-1707.9-16.2-2285.1
				c-5-69.2-51.4-124.2-110.4-131.1C2052.9,483.7,1192.7,410.9,862.5,436C802.9,440.5,756.3,497.6,754.8,567.4z"/>
			<linearGradient id="SVGID_6_" gradientUnits="userSpaceOnUse" x1="1725.3656" y1="743.7576" x2="1170.8138" y2="4242.4907">
				<stop  offset="0" style="stop-color:#53D8FF"/>
				<stop  offset="1" style="stop-color:#3840F7"/>
			</linearGradient>
			<path class="st9" d="M859.1,698.3c-12.6,344.5-52.2,1490.5-39.7,1914.3c1.8,61.9,43.6,112,96.5,115.6
				c217.8,14.9,960.7,47.8,1280.1,17.9c57.5-5.4,102.6-59.8,105.7-127.2c16.2-351.4,62.7-1418.5,50.6-1837.6
				c-1.9-66.8-46.2-121.4-103.1-127.4c-235.6-24.7-1025-83.6-1296.4-66.3C901.8,590.8,861.2,638.7,859.1,698.3z"/>
			<linearGradient id="SVGID_7_" gradientUnits="userSpaceOnUse" x1="1443.4028" y1="-1111.697" x2="1544.2448" y2="-83.1031">
				<stop  offset="0" style="stop-color:#53D8FF"/>
				<stop  offset="1" style="stop-color:#3840F7"/>
			</linearGradient>
			<path class="st10" d="M1443.2,520.6L1443.2,520.6c0,13.1,8.7,23.9,19.9,24.6c55.2,3.4,210.7,12.9,280.1,17.7
				c13.7,0.9,24.5-13.5,21.9-29.2l-0.4-2.7c-1.8-10.8-9.4-18.9-18.7-19.9c-47-5-188.7-19-282.6-15.1
				C1452,496.5,1443.2,507.4,1443.2,520.6z"/>
			<g>
				<g>
					<linearGradient id="SVGID_8_" gradientUnits="userSpaceOnUse" x1="1670.9363" y1="367.9105" x2="1427.4924" y2="1852.924">
						<stop  offset="0" style="stop-color:#53D8FF"/>
						<stop  offset="1" style="stop-color:#3840F7"/>
					</linearGradient>
					<circle class="st11" cx="1551.8" cy="1094.9" r="325.9"/>
					<path class="st0" d="M1651.5,971.7c0,55.2-44.7,114.8-99.9,114.8c-55.2,0-99.9-59.6-99.9-114.8c0-55.2,44.7-94.3,99.9-94.3
						C1606.8,877.4,1651.5,916.6,1651.5,971.7z"/>
					<path class="st0" d="M1427.6,1299h243.9c25.7,0,48.4-16.6,56.2-41.1l13.1-41c9.6-30-6-62.6-35.6-73.4
						c-99.3-36.3-201.9-31.6-307.1,3.3c-29.5,9.8-45.8,41.3-37.7,71.3l10.1,37.3C1377.6,1281.1,1401,1299,1427.6,1299z"/>
				</g>
				<g class="st12">
					<path class="st13" d="M2176.7,1941.3H987.6c-3.7,0-6.7-3-6.7-6.7V1763c0-3.7,3-6.7,6.7-6.7h1189.1c3.7,0,6.7,3,6.7,6.7v171.5
						C2183.4,1938.3,2180.4,1941.3,2176.7,1941.3z"/>
					<path class="st13" d="M2170.2,2243.2H981.1c-3.7,0-6.7-3-6.7-6.7v-171.5c0-3.7,3-6.7,6.7-6.7h1189.1c3.7,0,6.7,3,6.7,6.7v171.5
						C2176.9,2240.1,2173.9,2243.2,2170.2,2243.2z"/>
					<path class="st13" d="M1937.9,2603.2h-760.2c-4.6,0-8.3-3.7-8.3-8.3v-219.2c0-4.6,3.7-8.3,8.3-8.3h760.2c4.6,0,8.3,3.7,8.3,8.3
						v219.2C1946.2,2599.5,1942.5,2603.2,1937.9,2603.2z"/>
				</g>
				<path class="st14" d="M1738.4,1901h-692.3c-6.6,0-12-5.4-12-12v-78.8c0-6.6,5.4-12,12-12h692.3c6.6,0,12,5.4,12,12v78.8
					C1750.4,1895.6,1745,1901,1738.4,1901z"/>
				<g class="st15">
					
						<ellipse transform="matrix(0.9239 -0.3827 0.3827 0.9239 -740.4433 568.5673)" class="st0" cx="1059" cy="2145.5" rx="42.2" ry="42.2"/>
					
						<ellipse transform="matrix(0.9239 -0.3827 0.3827 0.9239 -732.4586 613.0413)" class="st0" cx="1174.8" cy="2147.7" rx="42.2" ry="42.2"/>
					
						<ellipse transform="matrix(0.9239 -0.3827 0.3827 0.9239 -726.0456 656.098)" class="st0" cx="1286.2" cy="2153.1" rx="42.2" ry="42.2"/>
					
						<ellipse transform="matrix(0.7071 -0.7071 0.7071 0.7071 -1113.365 1622.6055)" class="st0" cx="1402" cy="2155.3" rx="42.2" ry="42.2"/>
					
						<ellipse transform="matrix(0.2298 -0.9732 0.9732 0.2298 -927.5024 3136.3848)" class="st0" cx="1517.7" cy="2154.2" rx="42.2" ry="42.2"/>
					
						<ellipse transform="matrix(0.1602 -0.9871 0.9871 0.1602 -756.622 3423.3638)" class="st0" cx="1633.5" cy="2156.3" rx="42.2" ry="42.2"/>
				</g>
			</g>
		</g>
		<g>
			
				<linearGradient id="SVGID_9_" gradientUnits="userSpaceOnUse" x1="-5851.2183" y1="3150.636" x2="-5486.2354" y2="2211.0403" gradientTransform="matrix(-1 0 0 1 -3446.3174 0)">
				<stop  offset="0" style="stop-color:#F9B776"/>
				<stop  offset="1" style="stop-color:#F47960"/>
			</linearGradient>
			<path class="st16" d="M2115.4,2294.1l129.3,32.3l-32.3,242.4c0,0,48.5,48.5,64.6,113.1c16.2,64.6,31.1,336.1,31.1,336.1
				l30.7,18.5l3.7,15.5l-89.2,120l14.8-95.5c2.4-15.2-1.7-45.9-0.4-46.6c-48.5-129.3-152.2-493.5-152.2-493.5V2294.1z"/>
			
				<linearGradient id="SVGID_10_" gradientUnits="userSpaceOnUse" x1="-5856.7632" y1="6172.9048" x2="-4650.4414" y2="-7925.9873" gradientTransform="matrix(-1 0 0 1 -3446.3174 0)">
				<stop  offset="0" style="stop-color:#F9B776"/>
				<stop  offset="1" style="stop-color:#F47960"/>
			</linearGradient>
			<path class="st17" d="M2077.6,3053.7c1.4,0,2.8,0.1,4.2,0c-6.2-77.9-34.8-420.9-63.4-549.5c-32.3-145.4,48.5-436.3,48.5-436.3
				l145.4,145.4l-80.8,274.7c55.4,83.1-9,569.5-7.6,569.3l-0.1,1.1l21.1,29l-2.6,15.7l-128.8,76l50.7-82.3
				C2072.3,3083.7,2076.7,3068.9,2077.6,3053.7z"/>
			
				<linearGradient id="SVGID_11_" gradientUnits="userSpaceOnUse" x1="-5813.4014" y1="1664.2015" x2="-5658.6934" y2="1664.2015" gradientTransform="matrix(-1 0 0 1 -3446.3174 0)">
				<stop  offset="0" style="stop-color:#F9B776"/>
				<stop  offset="1" style="stop-color:#F47960"/>
			</linearGradient>
			<path class="st18" d="M2241.2,1422.8c0,0,283.2,319.2,0,482.8l-28.9-20.9c0,0,140.6-134.6,0-299.4L2241.2,1422.8z"/>
			
				<linearGradient id="SVGID_12_" gradientUnits="userSpaceOnUse" x1="-5310.564" y1="3177.2832" x2="-4942.542" y2="2612.646" gradientTransform="matrix(-1 0 0 1 -3211.1565 0)">
				<stop  offset="0" style="stop-color:#CB236D"/>
				<stop  offset="1" style="stop-color:#4C246D"/>
			</linearGradient>
			<path class="st19" d="M2005.1,3191h41.1c7.7,0,14.9-3.5,19.6-9.6c12.8-16.6,39.4-49.1,52.1-50c17.1-1.1,14.9,59.6,14.9,59.6h9.6
				l12.1-75.5c3.1-19-6.4-37.8-23.4-46.7l0,0c0,0-3.9,28.9-25.1,41.7c-21.2,12.8-86.2,58.5-86.2,58.5s-8-1.1-16.7,0.4
				C1990.1,3171.8,1991.9,3191,2005.1,3191z"/>
			
				<linearGradient id="SVGID_13_" gradientUnits="userSpaceOnUse" x1="-5642.1572" y1="3349.2356" x2="-5233.8047" y2="2643.4392" gradientTransform="matrix(-1 0 0 1 -3211.1565 0)">
				<stop  offset="0" style="stop-color:#CB236D"/>
				<stop  offset="1" style="stop-color:#4C246D"/>
			</linearGradient>
			<path class="st20" d="M2250,3186.3l37.9-15.9c7.1-3,12.4-9.1,14.4-16.5c5.4-20.3,17.2-60.6,28.6-66.3
				c15.3-7.7,36.9,49.2,36.9,49.2l8.8-3.7l-18.1-74.3c-4.6-18.7-20.6-32.4-39.7-34l0,0c0,0,7.6,28.1-7,48.1
				c-14.6,20-56.7,87.4-56.7,87.4s-7.8,2-15.2,6.9C2228.8,3174.4,2237.9,3191.4,2250,3186.3z"/>
			
				<linearGradient id="SVGID_14_" gradientUnits="userSpaceOnUse" x1="3144.5537" y1="1893.0038" x2="2630.2534" y2="2891.3528" gradientTransform="matrix(1 0 0 1 -893.1003 0)">
				<stop  offset="0" style="stop-color:#CB236D"/>
				<stop  offset="1" style="stop-color:#4C246D"/>
			</linearGradient>
			<path class="st21" d="M2029.9,1821.9c0,0,4.8,29.1-2.2,109.2c-7,80.1-40.2,268.1-33.5,448c0,0,94.6,22.1,259,11.6
				c0,0,69.4-280.9,52.5-387.6c-16.9-106.8-108.6-183.4-108.6-183.4L2029.9,1821.9z"/>
			
				<linearGradient id="SVGID_15_" gradientUnits="userSpaceOnUse" x1="-5644.4438" y1="1319.016" x2="-5534.5664" y2="1319.016" gradientTransform="matrix(-1 0 0 1 -3446.3174 0)">
				<stop  offset="0" style="stop-color:#F9B776"/>
				<stop  offset="1" style="stop-color:#F47960"/>
			</linearGradient>
			<polygon class="st22" points="2099.8,1286.8 2088.2,1422.8 2198.1,1422.8 2170.8,1215.2 			"/>
			
				<linearGradient id="SVGID_16_" gradientUnits="userSpaceOnUse" x1="-5446.4819" y1="1438.0634" x2="-6028.3281" y2="2184.5098" gradientTransform="matrix(-1 0 0 1 -3446.3174 0)">
				<stop  offset="0" style="stop-color:#FDF53F"/>
				<stop  offset="1" style="stop-color:#D93C65"/>
			</linearGradient>
			<path class="st23" d="M2230.7,1404c-37.9-2.1-122.7-6-182.8-2.7c-31.6,1.7-58.1,24.4-64.6,55.4l-14.6,70.2
				c-5.5,26.1-4.6,53.2,2.4,79l58.8,216c0,0,52.3,31.5,167.2-2.2c0,0,100.9-240.6,59.6-394.5C2253.5,1413.2,2243,1404.7,2230.7,1404
				z"/>
			
				<linearGradient id="SVGID_17_" gradientUnits="userSpaceOnUse" x1="-4999.7769" y1="1381.6602" x2="-5950.0825" y2="1926.0726" gradientTransform="matrix(-1 0 0 1 -3446.3174 0)">
				<stop  offset="0" style="stop-color:#F9B776"/>
				<stop  offset="1" style="stop-color:#F47960"/>
			</linearGradient>
			<path class="st24" d="M1986.2,1444.1c-16.2,42.6-30.8,87.3-46.5,129.2c-8,21-16.1,41.5-24.8,60.4c-4.4,9.4-9.2,18-13.6,25.9
				c-4.4,7.7-9.4,14.2-12,17.2c-0.5,0.4,1.2,0.8,1.8,0.8c0.3,0-10.9,1.9-14.4,2.4l-13.5-0.1c-19.4-1-41.3-4.4-63.4-8.7
				c-44.4-8.3-90.6-19.9-138-28.7l-0.4-0.1c-9.1-1.7-17.8,4.3-19.5,13.4c-1.1,6,1.1,11.8,5.4,15.6c19.1,16.8,39.4,30.7,60.4,44.1
				c10.6,6.5,21.4,12.8,32.3,18.9c11.2,5.7,22.4,11.4,34,16.7c23.4,10.2,47.6,19.6,75.4,25.6c7.3,1.2,14.5,2.5,22.1,3.5
				c8.4,0.3,16.1,1,25.3,0.5c4.9-0.5,9.8-1.1,14.7-1.8c2.6-0.5,4.5-0.5,7.7-1.4c3.4-1,6.7-2.1,10-3.4c6.9-2.5,11.4-5.5,17-8.6
				c4.7-3.1,8.9-6.3,13-9.6c15.2-13,24.7-25.8,33-38.2c8.3-12.3,14.9-24.7,20.8-36.8c11.9-24.2,21.1-48.2,28.6-72.4
				c15.2-48.4,25.5-96,29.9-146.6c2.1-24.2-15.9-45.5-40.1-47.6c-20-1.7-38.1,10.3-44.9,28.2L1986.2,1444.1z"/>
			
				<linearGradient id="SVGID_18_" gradientUnits="userSpaceOnUse" x1="-4905.3525" y1="1546.4838" x2="-5855.6567" y2="2090.8955" gradientTransform="matrix(-1 0 0 1 -3446.3174 0)">
				<stop  offset="0" style="stop-color:#F9B776"/>
				<stop  offset="1" style="stop-color:#F47960"/>
			</linearGradient>
			<path class="st25" d="M1676.7,1664.2l-19.6-46.5l-103.2-25.7c0,0-8.3,17.9,35.1,25.7c0,0-15.5,17.1-7.2,37.2
				C1590,1675,1677.7,1695.2,1676.7,1664.2z"/>
			
				<linearGradient id="SVGID_19_" gradientUnits="userSpaceOnUse" x1="-5461.4365" y1="1318.9719" x2="-5674.9575" y2="1006.748" gradientTransform="matrix(-1 0 0 1 -3446.3174 0)">
				<stop  offset="0" style="stop-color:#F9B776"/>
				<stop  offset="1" style="stop-color:#F47960"/>
			</linearGradient>
			<path class="st26" d="M2053.3,1129.8c-3.9,2.3-34.8,111.3-8.9,157.1c25.9,45.7,105-5.5,126.4-71.6
				C2192.2,1149.1,2157.8,1068.1,2053.3,1129.8z"/>
			
				<linearGradient id="SVGID_20_" gradientUnits="userSpaceOnUse" x1="-5339.3691" y1="1095.8981" x2="-5641.8535" y2="1489.1274" gradientTransform="matrix(-1 0 0 1 -3211.1565 0)">
				<stop  offset="0" style="stop-color:#2B3582"/>
				<stop  offset="1" style="stop-color:#150E42"/>
			</linearGradient>
			<path class="st27" d="M2258.3,1215.2c17.7,86.9,76.5,63.1,118.2,101.8c67.5,62.7,164-1.9,257.9,57.5
				c67.8,42.9,100.4,152.6,67.9,241.2c-45,122.7-198.9,173.1-278.7,135.8c-76.2-35.7-65.4-142.7-167.9-184
				c-43.5-17.5-65-6.1-91.1-32.2c-45.6-45.5-33.3-133.9-28.6-167.9c10.3-73.9,35.1-87.2,23.2-119.7c-23-63.1-130.4-50.1-139.3-94.7
				c-8.1-40.6,69.7-117.5,142.9-105.4C2276.1,1066.3,2250.4,1176.5,2258.3,1215.2z"/>
			<path class="st28" d="M2668.4,1594.9c1.3,0,2.6-0.9,2.9-2.3c14.5-60.2,7.9-109.6-19.6-146.8c-45.6-61.7-134.3-67.8-135.2-67.9
				c-1.4-0.2-3,1.1-3.1,2.8c-0.1,1.6,1.1,3,2.8,3.1c0.9,0.1,86.9,6,130.8,65.5c26.4,35.7,32.6,83.4,18.5,141.9
				c-0.4,1.6,0.6,3.2,2.2,3.6C2668,1594.9,2668.2,1594.9,2668.4,1594.9z"/>
			<path class="st29" d="M2377.9,1650c0.1,0,0.2,0,0.4,0c0.8-0.2,1.3-1,1.1-1.8c-14.1-54.2-38.9-91.9-73.7-111.9
				c-25.3-14.6-49-15.9-69.9-17.1c-20.1-1.2-37.5-2.2-51.6-14.6c-28.9-25.7-27.3-87.6,5-184c0.3-0.8-0.2-1.6-0.9-1.9
				c-0.8-0.3-1.6,0.2-1.9,0.9c-32.7,97.6-34.1,160.5-4.1,187.1c14.8,13.1,32.6,14.2,53.4,15.4c20.6,1.2,43.9,2.5,68.6,16.8
				c34.1,19.6,58.4,56.7,72.3,110.1C2376.7,1649.6,2377.3,1650,2377.9,1650z"/>
			<path class="st29" d="M2216.3,1193.7c0.2,0,0.3,0,0.5-0.1c0.8-0.3,1.2-1.1,0.9-1.9c-11.2-33.4-43.6-28.5-77.9-23.2
				c-21.7,3.3-44.1,6.8-63.2,1.1c-14.2-4.2-22.6-10.7-25.1-19.4c-4.2-14.7,10.4-31.2,10.6-31.4c0.6-0.6,0.5-1.5-0.1-2.1
				c-0.6-0.5-1.5-0.5-2.1,0.1c-0.6,0.7-15.8,17.8-11.2,34.1c2.7,9.7,11.8,16.9,27.1,21.4c19.7,5.8,42.4,2.3,64.5-1
				c34.4-5.3,64.2-9.9,74.6,21.2C2215.1,1193.3,2215.7,1193.7,2216.3,1193.7z"/>
		</g>
		<g>
			<g>
				<linearGradient id="SVGID_21_" gradientUnits="userSpaceOnUse" x1="3060.1074" y1="-34.5011" x2="2634.0984" y2="1538.4519">
					<stop  offset="0" style="stop-color:#FDF53F"/>
					<stop  offset="1" style="stop-color:#D93C65"/>
				</linearGradient>
				<path class="st30" d="M2543.4,856c0-153,129.6-277,285.1-277c150.9,0,270,117.5,270,262.4c0,144.9-119.1,268.6-270,276.6
					C2673,1126.2,2543.4,1009,2543.4,856z"/>
			</g>
			<g>
				<linearGradient id="SVGID_22_" gradientUnits="userSpaceOnUse" x1="2945.9822" y1="554.3499" x2="2427.1006" y2="1775.0879">
					<stop  offset="0" style="stop-color:#FDF53F"/>
					<stop  offset="1" style="stop-color:#D93C65"/>
				</linearGradient>
				<path class="st31" d="M2569.4,855.4c0-138.7,117.5-251,258.4-251c136.8,0,244.7,106.5,244.7,237.8
					c0,131.3-108,243.5-244.7,250.7C2686.9,1100.2,2569.4,994,2569.4,855.4z"/>
			</g>
			<g>
				<path class="st0" d="M2744.1,839.6h-23.2v-92.3c0-36.2,27.1-66.9,63.1-71.3l47.3-5.8c20.4-2.5,40.9,3.9,56.3,17.5
					s24.2,33.2,24.2,53.7v80.6h-23.2v-80.6c0-13.9-6-27.2-16.4-36.4c-10.4-9.2-24.3-13.5-38.1-11.9l-47.3,5.8
					c-24.4,3-42.8,23.7-42.8,48.3V839.6z"/>
				<path class="st0" d="M2714.1,818.9l203-11.2c8.2-0.5,15.2,6.1,15.2,14.4v160.8c0,7.9-6.4,14.4-14.4,14.4h-198.1
					c-7.8,0-14.1-6.2-14.4-13.9l-4.9-149.6C2700.2,825.9,2706.3,819.3,2714.1,818.9z"/>
				<linearGradient id="SVGID_23_" gradientUnits="userSpaceOnUse" x1="2896.103" y1="143.3593" x2="2775.9397" y2="1309.4797">
					<stop  offset="0" style="stop-color:#FDF53F"/>
					<stop  offset="1" style="stop-color:#D93C65"/>
				</linearGradient>
				<path class="st32" d="M2849.5,951.2l-12.3-35.3c-1.5-4.2-0.5-9,2.7-12.2c6.3-6.4,10-15.3,9.6-25c-0.8-17.2-14.9-31.2-32.1-31.9
					c-19.1-0.7-34.8,14.5-34.8,33.4c0,10.5,4.8,19.9,12.4,26c3.9,3.2,5.5,8.4,3.9,13.2l-11.1,31.9c-2.7,7.7,3.1,15.8,11.3,15.8h39.2
					C2846.4,967,2852.2,958.9,2849.5,951.2z"/>
			</g>
		</g>
		<g>
			<g>
				<g class="st33">
					
						<linearGradient id="SVGID_24_" gradientUnits="userSpaceOnUse" x1="904.4715" y1="9904.5869" x2="1543.1876" y2="9904.5869" gradientTransform="matrix(-0.4445 -0.8958 0.8958 -0.4445 -7542.5566 8227.3662)">
						<stop  offset="0" style="stop-color:#B37CFF"/>
						<stop  offset="1" style="stop-color:#F895E7"/>
					</linearGradient>
					<path class="st34" d="M1139.4,2893.4c2.5,5.2,0.8,11.6-3.9,14.7c-10.4,6.9-21.2,13.4-32.1,19.4c-5.3,2.9-11.9,0.7-14.7-4.9
						c0-0.1-0.1-0.1-0.1-0.2c-2.6-5.6-0.6-12.3,4.7-15.2c10.4-5.7,20.7-11.9,30.5-18.4c5.1-3.4,11.8-1.8,15,3.6
						C1139,2892.7,1139.2,2893,1139.4,2893.4z M1054.2,2936.9c0.2,0.4,0.4,0.8,0.5,1.3c2,5.9-0.9,12.5-6.6,14.6
						c-11.6,4.3-23.5,8.2-35.4,11.5c-5.8,1.6-11.7-2-13.3-8.2c-1.5-6.1,1.9-12.4,7.7-14c11.3-3.1,22.6-6.8,33.6-10.9
						C1046,2929.2,1051.8,2931.8,1054.2,2936.9z M962,2959.6c0.5,1.1,0.9,2.4,1.1,3.7c0.7,6.3-3.5,11.9-9.5,12.7
						c-12.2,1.5-24.7,2.5-37,2.9c-6,0.2-11-4.8-11.2-11.1c-0.2-6.3,4.5-11.6,10.5-11.8c11.7-0.4,23.5-1.3,35.1-2.7
						C955.6,2952.7,960,2955.4,962,2959.6z M867.2,2960c0.9,1.9,1.3,4,1.1,6.3c-0.6,6.3-6,10.8-12,10.1c-12.3-1.4-24.6-3.4-36.7-5.9
						c-5.9-1.2-9.7-7.2-8.6-13.4c1.1-6.2,6.9-10.2,12.8-9c11.5,2.4,23.2,4.2,34.9,5.6C862.4,2954.2,865.6,2956.6,867.2,2960z
						 M774.6,2938.3c1.3,2.6,1.5,5.8,0.6,8.8c-1.9,6-8.1,9.1-13.8,7.1c-11.6-4.2-23.3-9-34.6-14.2c-5.5-2.5-8-9.3-5.6-15.1
						c2.4-5.8,8.8-8.4,14.3-5.8c10.7,5,21.8,9.5,32.8,13.5C771.2,2933.5,773.4,2935.7,774.6,2938.3z M688.9,2895.5
						c1.6,3.4,1.6,7.6-0.5,11.1c-3.2,5.4-9.9,7-15,3.7c-10.5-6.8-20.8-14.2-30.7-21.9c-4.8-3.8-5.8-10.9-2.3-16
						c3.6-5.1,10.4-6.1,15.2-2.3c9.4,7.3,19.2,14.4,29.2,20.8C686.7,2892.1,688,2893.7,688.9,2895.5z M488,2532.2
						c0.7,1.4,1.1,3,1.1,4.7c0.4,12.3,1.3,24.7,2.8,36.9c0.7,6.3-3.5,12-9.5,12.7c-6,0.8-11.4-3.7-12.1-10
						c-1.5-12.9-2.5-26-2.9-38.9c-0.2-6.3,4.5-11.6,10.5-11.8C482.3,2525.7,486.2,2528.3,488,2532.2z M614.3,2834
						c2,4.2,1.4,9.5-2,13.1c-4.2,4.5-11.1,4.5-15.4,0.1c-8.8-9.1-17.3-18.7-25.3-28.5c-3.9-4.8-3.4-12,1.2-16.1
						c4.6-4.1,11.4-3.5,15.3,1.3c7.6,9.4,15.7,18.5,24,27.1C613.1,2831.8,613.8,2832.9,614.3,2834z M502,2630.7
						c0.3,0.7,0.6,1.4,0.8,2.2c3,11.9,6.6,23.8,10.5,35.4c2,5.9-0.9,12.5-6.5,14.6c-5.7,2.1-11.9-1-13.9-6.9
						c-4.2-12.2-7.9-24.7-11.1-37.2c-1.6-6.1,1.9-12.4,7.7-14C494.6,2623.3,499.8,2626,502,2630.7z M554.7,2756.5
						c2.4,5.2,0.8,11.5-3.9,14.7c-5.1,3.4-11.8,1.8-15-3.5c-6.6-10.9-12.9-22.3-18.6-33.8c0-0.1-0.1-0.1-0.1-0.2
						c-2.6-5.6-0.6-12.3,4.7-15.2c5.3-2.9,11.9-0.7,14.7,4.9c5.4,10.9,11.4,21.7,17.7,32.1C554.3,2755.8,554.5,2756.2,554.7,2756.5z
						"/>
					
						<linearGradient id="SVGID_25_" gradientUnits="userSpaceOnUse" x1="1575.1453" y1="9748.3164" x2="1613.0829" y2="9748.3164" gradientTransform="matrix(-0.4445 -0.8958 0.8958 -0.4445 -7542.5566 8227.3662)">
						<stop  offset="0" style="stop-color:#B37CFF"/>
						<stop  offset="1" style="stop-color:#F895E7"/>
					</linearGradient>
					<path class="st35" d="M492.2,2452.1c1,2,1.4,4.3,1,6.7c-0.8,5.8-1.5,11.8-2.1,17.7c-0.6,6.3-6,10.8-12,10.1
						c-6-0.7-10.3-6.3-9.7-12.6c0.6-6.2,1.4-12.5,2.2-18.6c0.9-6.2,6.4-10.5,12.3-9.6C487.7,2446.4,490.7,2448.9,492.2,2452.1z"/>
				</g>
				<g class="st33">
					
						<linearGradient id="SVGID_26_" gradientUnits="userSpaceOnUse" x1="1776.3445" y1="10031.3047" x2="1802.5818" y2="10031.3047" gradientTransform="matrix(-0.4445 -0.8958 0.8958 -0.4445 -7542.5566 8227.3662)">
						<stop  offset="0" style="stop-color:#B37CFF"/>
						<stop  offset="1" style="stop-color:#F895E7"/>
					</linearGradient>
					<path class="st36" d="M664.8,2154.9c2.3,4.9,1,11.1-3.4,14.4c-4.6,3.4-9.1,7-13.6,10.6c-4.7,3.9-11.6,3-15.3-2
						c-3.7-5-2.8-12.2,1.9-16c4.7-3.8,9.5-7.6,14.3-11.2c4.9-3.7,11.7-2.5,15.2,2.7C664.2,2153.9,664.5,2154.4,664.8,2154.9z"/>
					
						<linearGradient id="SVGID_27_" gradientUnits="userSpaceOnUse" x1="1150.9591" y1="10312.8711" x2="1809.4862" y2="10312.8711" gradientTransform="matrix(-0.4445 -0.8958 0.8958 -0.4445 -7542.5566 8227.3662)">
						<stop  offset="0" style="stop-color:#B37CFF"/>
						<stop  offset="1" style="stop-color:#F895E7"/>
					</linearGradient>
					<path class="st37" d="M1290.8,2319.7c2.2,4.7,4.4,9.5,6.5,14.3c2.5,5.7,0.1,12.5-5.4,15.1c-5.5,2.6-12,0-14.4-5.7
						c-4.8-11.1-10.1-22-15.7-32.5c-2.9-5.5-1.1-12.5,4.2-15.5c5.2-3.1,11.9-1.1,14.8,4.4
						C1284.2,2306.2,1287.6,2312.9,1290.8,2319.7z M1317.5,2390.5c0.3,0.6,0.5,1.2,0.7,1.8c3.5,12.2,6.5,24.7,9.1,37.2
						c1.2,6.2-2.5,12.2-8.4,13.5c-5.9,1.3-11.7-2.7-12.9-8.8c-2.4-11.8-5.3-23.7-8.6-35.3c-1.7-6,1.5-12.4,7.3-14.2
						C1309.8,2383,1315.2,2385.6,1317.5,2390.5z M1249.4,2249.4c2.3,4.8,1.1,10.8-3.2,14.2c-4.8,3.8-11.6,2.8-15.2-2.3
						c-6.9-9.6-14.4-19.1-22.1-28.1c-4-4.7-3.7-11.9,0.8-16.1c4.5-4.2,11.4-3.8,15.4,0.9c8.1,9.5,15.9,19.5,23.2,29.6
						C1248.7,2248.1,1249.1,2248.7,1249.4,2249.4z M1334.4,2486.9c0.6,1.3,1,2.7,1.1,4.3c0.9,12.7,1.2,25.6,1.1,38.3
						c-0.1,6.3-5,11.3-11,11.2c-6-0.1-10.8-5.3-10.7-11.6c0.2-12.1-0.2-24.3-1-36.4c-0.4-6.3,4.1-11.8,10.1-12.2
						C1328.4,2480.3,1332.5,2482.9,1334.4,2486.9z M1185.2,2178.2c1.9,4,1.5,8.9-1.4,12.5c-3.9,4.8-10.7,5.4-15.3,1.3
						c-8.8-7.8-18-15.3-27.4-22.4c-4.9-3.7-6.1-10.8-2.6-15.9c3.5-5.1,10.3-6.3,15.2-2.7c9.9,7.4,19.6,15.3,28.9,23.5
						C1183.6,2175.6,1184.6,2176.8,1185.2,2178.2z M1107.8,2123.4c1.5,3.2,1.6,7-0.1,10.4c-2.8,5.6-9.4,7.7-14.7,4.8
						c-10.2-5.6-20.8-10.9-31.4-15.6c-5.5-2.4-8.2-9.2-5.8-15c2.3-5.8,8.7-8.5,14.2-6.1c11.2,5,22.3,10.5,33,16.4
						C1105.2,2119.5,1106.8,2121.3,1107.8,2123.4z M1020.8,2087.7c1.1,2.4,1.5,5.2,0.8,8c-1.6,6.1-7.5,9.7-13.3,8.1
						c-11.1-3.2-22.5-5.9-33.9-8c-5.9-1.1-9.8-7.1-8.8-13.3c1.1-6.2,6.7-10.3,12.6-9.2c11.9,2.3,23.9,5.1,35.6,8.4
						C1017,2082.6,1019.5,2084.8,1020.8,2087.7z M928.6,2072.7c0.8,1.7,1.2,3.6,1.1,5.6c-0.2,6.3-5.3,11.2-11.3,10.9
						c-11.5-0.5-23.2-0.5-34.7,0c-6,0.3-11.1-4.6-11.3-10.9c-0.3-6.3,4.4-11.6,10.4-11.9c12.1-0.5,24.4-0.5,36.5,0
						C923.4,2066.5,926.9,2069.1,928.6,2072.7z M835.5,2079.3c0.4,0.9,0.8,2,1,3c1.1,6.2-2.8,12.2-8.7,13.3
						c-11.3,2.2-22.7,4.8-33.8,8c-5.8,1.6-11.8-2-13.4-8.1c-1.6-6.1,1.8-12.4,7.6-14c11.7-3.3,23.7-6.1,35.6-8.4
						C828.7,2072.2,833.4,2074.9,835.5,2079.3z M746.2,2107.3c0.1,0.2,0.2,0.4,0.3,0.6c2.3,5.8-0.2,12.5-5.8,15
						c-7.8,3.5-15.6,7.2-23.2,11.2c-2.7,1.4-5.5,2.9-8.2,4.4c-5.3,2.9-11.9,0.8-14.7-4.8c-2.9-5.6-0.7-12.5,4.6-15.4
						c2.8-1.6,5.7-3.1,8.6-4.6c8-4.1,16.2-8.1,24.4-11.7C737.5,2099.5,743.6,2101.9,746.2,2107.3z"/>
					
						<linearGradient id="SVGID_28_" gradientUnits="userSpaceOnUse" x1="1083.8212" y1="10439.8711" x2="1121.2898" y2="10439.8711" gradientTransform="matrix(-0.4445 -0.8958 0.8958 -0.4445 -7542.5566 8227.3662)">
						<stop  offset="0" style="stop-color:#B37CFF"/>
						<stop  offset="1" style="stop-color:#F895E7"/>
					</linearGradient>
					<path class="st38" d="M1330.6,2585.1c1,2,1.4,4.4,1,6.8c-0.9,6.1-1.9,12.3-3,18.5c-1.1,6.2-6.9,10.2-12.8,9
						c-5.9-1.2-9.8-7.2-8.6-13.4c1.1-5.8,2.1-11.7,2.9-17.5c0.9-6.2,6.4-10.5,12.4-9.6C1326.2,2579.5,1329.1,2581.9,1330.6,2585.1z"
						/>
				</g>
				<g>
					<linearGradient id="SVGID_29_" gradientUnits="userSpaceOnUse" x1="979.7903" y1="2227.1672" x2="742.8443" y2="3094.2891">
						<stop  offset="0" style="stop-color:#FDF53F"/>
						<stop  offset="1" style="stop-color:#D93C65"/>
					</linearGradient>
					<path class="st39" d="M1211.1,2630.1c0.9-2.1,0.4-4.5-1.1-6.1l-45-44.7c5.6-29.8,6.7-60.7,2.8-91.7l47.6-41.4
						c1.7-1.5,2.3-3.9,1.5-6l-26.2-73c-0.8-2.1-2.7-3.5-4.9-3.5l-61.8,1.7c-16.6-26-36.9-48.5-59.8-67l5.7-64.7c0.2-2.3-1-4.4-3-5.4
						l-67.7-32.3c-2-0.9-4.3-0.5-5.8,1.2l-42.5,47.2c-28.4-5.9-57.8-7.2-87.3-3.2l-39.5-50.1c-1.4-1.8-3.7-2.4-5.7-1.6l-69.5,27.4
						c-2,0.8-3.4,2.9-3.3,5.1l1.8,64.9c-24.7,17.3-46.1,38.6-63.7,62.6l-61.6-6.2c-2.2-0.2-4.2,1-5.1,3.1l-30.6,71
						c-0.9,2.1-0.4,4.5,1.1,6.1l45,44.7c-5.6,29.8-6.7,60.7-2.8,91.7l-47.6,41.4c-1.7,1.5-2.3,3.9-1.5,6l26.2,73
						c0.8,2.1,2.7,3.5,4.9,3.5l61.8-1.7c16.6,26,36.9,48.5,59.8,67l-5.7,64.7c-0.2,2.3,1,4.4,3,5.4l67.7,32.3c2,0.9,4.3,0.5,5.8-1.2
						l42.5-47.2c28.4,5.9,57.8,7.2,87.3,3.2l39.5,50.1c1.4,1.8,3.7,2.4,5.7,1.6l69.5-27.4c2-0.8,3.4-2.9,3.3-5.1l-1.8-64.9
						c24.7-17.3,46.1-38.6,63.7-62.6l61.6,6.2c2.2,0.2,4.2-1,5.1-3.1L1211.1,2630.1z"/>
					<path class="st40" d="M965.6,2489.1c16.2,34.2,6.5,76.8-24.2,99.2c-33.8,24.6-80.4,15.7-103.9-19.8
						c-11.4-17.2-15.7-38-12.2-58.6c3.5-20.6,14.5-38.5,30.8-50.4c33.8-24.6,80.4-15.7,103.9,19.8
						C962.1,2482.4,964,2485.7,965.6,2489.1z M847.4,2550.3c1.3,2.6,2.7,5.2,4.3,7.7c18,27.2,53.8,34.1,79.7,15.2
						c25.9-18.9,32.3-56.4,14.3-83.6c-18-27.2-53.8-34.1-79.7-15.2c-12.5,9.1-20.9,22.9-23.6,38.7
						C840.2,2525.9,842,2538.9,847.4,2550.3z"/>
					<path class="st40" d="M1061.4,2437.4c2.8,5.9,5.3,11.9,7.5,18.2l0,0c0.7,2,1.4,3.9,2,5.9c3.2,9.8,5.6,19.8,7.2,29.9
						c0,0.1,0,0.3,0.1,0.4c0.1,0.4,0.1,0.8,0.2,1.2c0.1,0.8,0.2,1.5,0.3,2.3c0.3,2-0.7,3.9-2.4,4.8c-0.4,0.2-0.8,0.4-1.3,0.4
						c-2.4,0.4-4.6-1.4-4.9-3.9c-1.8-12.9-5-25.6-9.4-37.9c-21.9-60.9-71.4-102.6-128-115.2c-31.5-7-65.1-5-97.3,7.7
						c-5.7,2.2-11.2,4.7-16.5,7.5c-35.9,18.7-64.3,49.5-81.1,88.4c-19.2,44.6-20.7,94.5-4.3,140.4c34.1,94.8,135.1,143,225.3,107.5
						c5.6-2.2,11-4.7,16.3-7.4c22.9-11.9,43.1-29,59-50c0.4-0.5,0.9-1,1.5-1.2c1.5-0.8,3.3-0.6,4.6,0.5c1.9,1.6,2.2,4.4,0.7,6.4
						c-16.7,22.1-37.8,40-61.9,52.5c-5.5,2.9-11.2,5.5-17.1,7.8c-94.7,37.3-200.8-13.4-236.5-112.9c-17.3-48.2-15.7-100.6,4.5-147.4
						c17.6-40.8,47.4-73.2,85.1-92.8c5.6-2.9,11.4-5.5,17.3-7.9c45.9-18.1,95.7-16.3,140.4,5
						C1011.7,2366.4,1042.6,2397.8,1061.4,2437.4z"/>
				</g>
			</g>
			<g>
				<g class="st33">
					
						<linearGradient id="SVGID_30_" gradientUnits="userSpaceOnUse" x1="526.0054" y1="10414.9863" x2="544.744" y2="10414.9863" gradientTransform="matrix(-0.4445 -0.8958 0.8958 -0.4445 -7542.5566 8227.3662)">
						<stop  offset="0" style="stop-color:#B37CFF"/>
						<stop  offset="1" style="stop-color:#F895E7"/>
					</linearGradient>
					<path class="st41" d="M1561.6,3109.4c1.3,2.7,0.8,6.1-1.5,8.3c-4.2,4.1-8.5,8-13,11.8c-2.9,2.5-7.1,2-9.5-1
						c-2.4-3-1.9-7.5,0.9-9.9c4.2-3.6,8.4-7.4,12.4-11.3c2.7-2.6,7-2.5,9.5,0.4C1560.9,3108.3,1561.3,3108.8,1561.6,3109.4z"/>
					
						<linearGradient id="SVGID_31_" gradientUnits="userSpaceOnUse" x1="517.2747" y1="10216.9746" x2="873.0012" y2="10216.9746" gradientTransform="matrix(-0.4445 -0.8958 0.8958 -0.4445 -7542.5566 8227.3662)">
						<stop  offset="0" style="stop-color:#B37CFF"/>
						<stop  offset="1" style="stop-color:#F895E7"/>
					</linearGradient>
					<path class="st42" d="M1520.6,3142.4c1.5,3.2,0.5,7.2-2.4,9.1c-8.3,5.5-17,10.6-25.8,15.2c-1.9,1-3.7,1.9-5.6,2.8
						c-3.4,1.7-7.3-0.1-9-3.4c-1.6-3.5-0.1-7.7,3.2-9.4c1.8-0.9,3.6-1.8,5.4-2.7c8.4-4.4,16.7-9.2,24.6-14.5
						c3.1-2.1,7.3-1.1,9.3,2.2C1520.4,3142,1520.5,3142.2,1520.6,3142.4z M1457.5,3173.5c0.1,0.3,0.3,0.6,0.4,0.9
						c1.2,3.7-0.8,7.7-4.3,8.9c-11.3,3.9-22.9,7.1-34.6,9.5c-3.6,0.8-7.2-1.8-7.9-5.6c-0.7-3.8,1.6-7.5,5.3-8.3
						c11.1-2.3,22.2-5.3,33-9C1452.6,3168.8,1456,3170.4,1457.5,3173.5z M1389,3187.6c0.4,0.8,0.6,1.7,0.7,2.6
						c0.3,3.9-2.5,7.3-6.2,7.5c-11.9,0.9-23.9,0.9-35.8,0.3c-3.7-0.2-6.5-3.5-6.4-7.4c0.2-3.9,3.4-6.9,7.1-6.7
						c11.3,0.7,22.8,0.6,34.1-0.2C1385.3,3183.5,1387.8,3185.1,1389,3187.6z M1319.3,3183.6c0.6,1.3,0.9,2.8,0.6,4.4
						c-0.7,3.8-4.1,6.4-7.8,5.7c-11.7-2.2-23.4-5.2-34.8-8.9c-3.5-1.2-5.5-5.1-4.4-8.8c1.1-3.7,4.9-5.8,8.4-4.6
						c10.8,3.5,22,6.4,33.2,8.5C1316.7,3180.1,1318.4,3181.6,1319.3,3183.6z M1252.6,3161.8c0.9,1.8,1,4,0.1,6
						c-1.5,3.6-5.5,5.1-8.9,3.5c-10.9-5.2-21.5-11-31.7-17.5c-3.2-2-4.2-6.4-2.3-9.7c1.9-3.3,6.1-4.4,9.2-2.4
						c9.7,6.2,19.9,11.8,30.2,16.7C1250.8,3159.2,1252,3160.4,1252.6,3161.8z M1193,3123.7c1.1,2.4,0.9,5.3-0.7,7.5
						c-2.3,3.1-6.5,3.6-9.4,1.1c-9.3-7.8-18.3-16.2-26.7-25.1c-2.6-2.8-2.6-7.3,0.1-10c2.6-2.7,6.9-2.7,9.5,0.1
						c8,8.5,16.5,16.5,25.4,23.9C1191.9,3121.9,1192.5,3122.8,1193,3123.7z M1144,3071.4c1.4,3,0.7,6.6-1.9,8.7
						c-2.9,2.4-7.2,1.8-9.4-1.3c-7.2-9.9-14-20.4-20-31.2c-1.8-3.4-0.8-7.7,2.4-9.7c3.2-2,7.3-0.8,9.2,2.5
						c5.8,10.3,12.2,20.3,19.1,29.8C1143.6,3070.6,1143.8,3071,1144,3071.4z M1096.7,2973.6c0.2,0.4,0.3,0.8,0.4,1.2
						c2.8,9.9,6.1,19.8,9.9,29.4c0.6,1.5,1.1,2.9,1.7,4.3c1.5,3.6-0.1,7.7-3.5,9.3c-3.4,1.6-7.5-0.1-8.8-3.7c-0.6-1.5-1.2-3-1.8-4.6
						c-4-10.1-7.5-20.4-10.4-30.8c-1-3.7,1-7.7,4.6-8.8C1092,2969,1095.3,2970.6,1096.7,2973.6z"/>
				</g>
				<g class="st33">
					
						<linearGradient id="SVGID_32_" gradientUnits="userSpaceOnUse" x1="683.3325" y1="10557.6025" x2="1093.014" y2="10557.6025" gradientTransform="matrix(-0.4445 -0.8958 0.8958 -0.4445 -7542.5566 8227.3662)">
						<stop  offset="0" style="stop-color:#B37CFF"/>
						<stop  offset="1" style="stop-color:#F895E7"/>
					</linearGradient>
					<path class="st43" d="M1620.9,2754.6c1.6,3.5,0.3,7.7-2.9,9.4c-3.3,1.8-7.4,0.4-9-3.1c-5.1-10.5-10.9-20.7-17.1-30.4
						c-2-3.2-1.3-7.6,1.8-9.8c3.1-2.2,7.3-1.3,9.3,1.9C1609.4,2732.9,1615.5,2743.6,1620.9,2754.6
						C1620.8,2754.5,1620.9,2754.6,1620.9,2754.6z M1634.7,2787.7c0.1,0.2,0.2,0.5,0.3,0.7c4.1,11.5,7.5,23.4,10.2,35.4
						c0.9,3.8-1.4,7.6-5,8.5c-3.6,0.9-7.2-1.5-8.1-5.2c-2.6-11.4-5.9-22.8-9.8-33.8c-1.3-3.7,0.5-7.7,4-9.1
						C1629.6,2783,1633.2,2784.5,1634.7,2787.7z M1582.3,2694.9c1.3,2.8,0.8,6.3-1.6,8.5c-2.8,2.6-7,2.3-9.5-0.7
						c-7.4-8.9-15.3-17.3-23.6-25.1c-2.8-2.6-3-7.1-0.5-10c2.5-2.9,6.7-3.1,9.5-0.5c8.7,8.2,17,17.1,24.7,26.4
						C1581.8,2693.8,1582.1,2694.3,1582.3,2694.9z M1650.7,2857.9c0.3,0.7,0.6,1.5,0.7,2.4c1.3,12.2,1.9,24.7,1.8,36.9
						c0,3.9-3.1,7-6.8,7c-3.7-0.1-6.7-3.3-6.6-7.1c0.1-11.7-0.5-23.6-1.7-35.2c-0.4-3.9,2.2-7.4,5.9-7.8
						C1646.8,2853.7,1649.4,2855.3,1650.7,2857.9z M1531.2,2646.7c1.1,2.2,1,5-0.5,7.2c-2.1,3.2-6.3,4-9.4,1.7
						c-9.1-6.7-18.8-12.9-28.6-18.5c-3.3-1.8-4.5-6.1-2.8-9.6c1.7-3.4,5.8-4.7,9.1-2.9c10.3,5.8,20.4,12.3,30,19.3
						C1530,2644.7,1530.8,2645.6,1531.2,2646.7z M1470.6,2612.7c0.8,1.7,1,3.8,0.3,5.7c-1.3,3.6-5.2,5.4-8.7,4
						c-10.4-4.2-21.2-7.9-32-10.7c-3.6-1-5.8-4.8-4.9-8.6c0.9-3.8,4.6-6.1,8.2-5.1c11.3,3,22.6,6.8,33.5,11.3
						C1468.7,2609.9,1469.9,2611.2,1470.6,2612.7z M1404.1,2594.9c0.6,1.2,0.8,2.6,0.6,4c-0.5,3.9-3.8,6.6-7.5,6.1
						c-11.1-1.5-22.4-2.3-33.5-2.4c-3.7,0-6.7-3.2-6.7-7.1c0-3.9,3-7,6.7-7c11.7,0.1,23.5,0.9,35.1,2.5
						C1401.2,2591.4,1403.1,2592.9,1404.1,2594.9z"/>
					
						<linearGradient id="SVGID_33_" gradientUnits="userSpaceOnUse" x1="637.5008" y1="10576.9023" x2="665.8765" y2="10576.9023" gradientTransform="matrix(-0.4445 -0.8958 0.8958 -0.4445 -7542.5566 8227.3662)">
						<stop  offset="0" style="stop-color:#B37CFF"/>
						<stop  offset="1" style="stop-color:#F895E7"/>
					</linearGradient>
					<path class="st44" d="M1649.9,2930.3c0.6,1.2,0.8,2.6,0.6,4.1c-0.8,6-1.7,12-2.8,17.8c-0.7,3.8-4.2,6.3-7.9,5.6
						c-3.6-0.8-6-4.5-5.3-8.3c1-5.6,1.9-11.3,2.7-17c0.5-3.9,3.9-6.6,7.6-6C1647.1,2926.8,1649,2928.3,1649.9,2930.3z"/>
				</g>
				<g>
					<linearGradient id="SVGID_34_" gradientUnits="userSpaceOnUse" x1="1462.5052" y1="2552.1553" x2="1225.5594" y2="3348.6953">
						<stop  offset="0" style="stop-color:#FDF53F"/>
						<stop  offset="1" style="stop-color:#D93C65"/>
					</linearGradient>
					<path class="st45" d="M1569.7,2965.5c0.6-1.4,0.3-3-0.8-4.1l-30.1-29.9c3.7-19.9,4.5-40.6,1.9-61.4l31.8-27.7
						c1.1-1,1.5-2.6,1-4l-17.5-48.9c-0.5-1.4-1.8-2.4-3.3-2.3l-41.4,1.1c-11.1-17.4-24.7-32.5-40-44.9l3.8-43.3c0.1-1.5-0.7-3-2-3.6
						l-45.3-21.6c-1.3-0.6-2.9-0.3-3.9,0.8l-28.4,31.6c-19-4-38.7-4.8-58.4-2.1l-26.4-33.5c-0.9-1.2-2.5-1.6-3.8-1.1l-46.5,18.3
						c-1.4,0.5-2.2,1.9-2.2,3.4l1.2,43.5c-16.5,11.6-30.8,25.8-42.6,41.9l-41.2-4.1c-1.4-0.1-2.8,0.7-3.4,2.1l-20.5,47.5
						c-0.6,1.4-0.3,3,0.8,4.1l30.1,29.9c-3.7,19.9-4.5,40.6-1.9,61.4l-31.8,27.7c-1.1,1-1.5,2.6-1,4l17.5,48.9
						c0.5,1.4,1.8,2.4,3.3,2.3l41.4-1.1c11.1,17.4,24.7,32.5,40,44.9l-3.8,43.3c-0.1,1.5,0.7,3,2,3.6l45.3,21.6
						c1.3,0.6,2.9,0.3,3.9-0.8l28.4-31.6c19,4,38.7,4.8,58.4,2.1l26.4,33.5c0.9,1.2,2.5,1.6,3.8,1.1l46.5-18.3
						c1.4-0.5,2.2-1.9,2.2-3.4l-1.2-43.5c16.5-11.6,30.8-25.8,42.6-41.9l41.2,4.1c1.4,0.1,2.8-0.7,3.4-2.1L1569.7,2965.5z"/>
					<path class="st40" d="M1406.3,2870.8c4.8,10.2,6.4,21.7,4.5,33.1c-2.4,14-9.9,26.2-21,34.4c-23,16.8-54.7,10.7-70.8-13.5
						c-16-24.3-10.3-57.5,12.7-74.3c11.1-8.1,24.6-11.2,38-8.6c13.4,2.5,25,10.4,32.8,22.1
						C1403.9,2866.2,1405.2,2868.5,1406.3,2870.8z M1327.2,2911.8c0.8,1.7,1.7,3.4,2.8,5c11.8,17.8,35.1,22.2,52.1,9.9
						c8.2-6,13.7-14.9,15.4-25.3c1.8-10.3-0.4-20.8-6.1-29.4l0,0c-5.7-8.6-14.3-14.4-24.1-16.3c-9.8-1.9-19.8,0.4-28,6.4
						C1323.9,2873.3,1319.1,2894.6,1327.2,2911.8z"/>
					<path class="st40" d="M1473,2835c1.9,4,3.6,8.1,5.1,12.4c3,8.5,5.3,17.3,6.6,26.2c0.1,0.4,0.1,0.8,0.2,1.2
						c0.4,3.1-1.1,6-3.6,7.4c-0.6,0.3-1.3,0.5-2,0.7c-3.7,0.6-7.1-2.1-7.6-6c-1.2-8.3-3.2-16.6-6.1-24.5l0,0
						c-0.2-0.4-0.3-0.9-0.5-1.3c-6.9-18.7-18-34.9-32.2-47.5c-7.7-6.9-16.3-12.7-25.7-17.3c-0.1,0-0.2-0.1-0.2-0.1
						c-0.2-0.1-0.5-0.2-0.7-0.3c-27.5-13.1-58.3-14.3-86.6-3.1c-3.7,1.4-7.2,3.1-10.7,4.9c-23.2,12.1-41.6,32.1-52.5,57.2
						c-12.4,28.9-13.4,61.2-2.8,90.9c10.7,29.7,31.7,53.3,59.3,66.5c27.5,13.1,58.3,14.3,86.6,3.1c3.6-1.4,7.1-3,10.5-4.8
						c14.8-7.7,27.9-18.8,38.2-32.4c0.6-0.8,1.4-1.5,2.3-1.9c2.3-1.2,5.1-1,7.2,0.8c2.9,2.4,3.4,6.9,1.1,9.9
						c-11.5,15.2-26.1,27.6-42.7,36.2c-3.8,2-7.8,3.8-11.8,5.4c-31.6,12.5-66,11.2-96.9-3.5c-30.8-14.7-54.4-41.1-66.3-74.4
						c-11.9-33.3-10.9-69.4,3.1-101.7c12.1-28.1,32.7-50.5,58.7-64c3.9-2,7.8-3.8,11.9-5.4C1376.3,2745.4,1444.4,2774.6,1473,2835z"
						/>
				</g>
			</g>
		</g>
	</g>
</g>
</svg>
