<?xml version="1.0" encoding="utf-8"?>
<!-- Generator: Adobe Illustrator 23.1.0, SVG Export Plug-In . SVG Version: 6.00 Build 0)  -->
<svg version="1.1" xmlns="http://www.w3.org/2000/svg" xmlns:xlink="http://www.w3.org/1999/xlink" x="0px" y="0px"
	 viewBox="0 0 3710 3710" style="enable-background:new 0 0 3710 3710;" xml:space="preserve">
<style type="text/css">
	.st0{fill:#FFFFFF;}
	.st1{fill:#F4F7FA;}
	.st2{fill:url(#SVGID_1_);}
	.st3{opacity:0.5;clip-path:url(#SVGID_3_);}
	.st4{fill:#FCFDFE;}
	.st5{clip-path:url(#SVGID_5_);fill:url(#SVGID_6_);}
	.st6{opacity:0.5;clip-path:url(#SVGID_5_);}
	.st7{fill:#BEB8F2;}
	.st8{fill:url(#SVGID_7_);}
	.st9{opacity:0.5;clip-path:url(#SVGID_9_);}
	.st10{clip-path:url(#SVGID_11_);fill:url(#SVGID_12_);}
	.st11{opacity:0.5;clip-path:url(#SVGID_11_);}
	.st12{fill:url(#SVGID_13_);}
	.st13{opacity:0.5;clip-path:url(#SVGID_15_);}
	.st14{fill:url(#SVGID_16_);}
	.st15{fill:url(#SVGID_17_);}
	.st16{fill:url(#SVGID_18_);}
	.st17{fill:#DE8BDF;}
	.st18{fill:url(#SVGID_19_);}
	.st19{fill:url(#SVGID_20_);}
	.st20{fill:url(#SVGID_21_);}
	.st21{fill:url(#SVGID_22_);}
	.st22{fill:url(#SVGID_23_);}
	.st23{fill:url(#SVGID_24_);}
	.st24{fill:url(#SVGID_25_);}
	.st25{fill:url(#SVGID_26_);}
	.st26{opacity:0.3;fill:url(#SVGID_27_);}
	.st27{opacity:0.3;fill:url(#SVGID_28_);}
	.st28{fill:url(#SVGID_29_);}
	.st29{fill:url(#SVGID_30_);}
	.st30{fill:url(#SVGID_31_);}
	.st31{fill:url(#SVGID_32_);}
	.st32{fill:url(#SVGID_33_);}
	.st33{fill:url(#SVGID_34_);}
	.st34{opacity:0.3;fill:url(#SVGID_35_);}
	.st35{fill:url(#SVGID_36_);}
	.st36{fill:url(#SVGID_37_);}
	.st37{fill:url(#SVGID_38_);}
	.st38{fill:url(#SVGID_39_);}
	.st39{fill:url(#SVGID_40_);}
	.st40{fill:url(#SVGID_41_);}
	.st41{fill:url(#SVGID_42_);}
	.st42{fill:url(#SVGID_43_);}
	.st43{opacity:0.3;fill:url(#SVGID_44_);}
	.st44{fill:url(#SVGID_45_);}
	.st45{fill:url(#SVGID_46_);}
	.st46{fill:url(#SVGID_47_);}
	.st47{fill:url(#SVGID_48_);}
	.st48{fill:url(#SVGID_49_);}
	.st49{fill:url(#SVGID_50_);}
	.st50{fill:url(#SVGID_51_);}
	.st51{fill:url(#SVGID_52_);}
	.st52{fill:url(#SVGID_53_);}
	.st53{opacity:0.25;fill:url(#SVGID_54_);}
	.st54{fill:url(#SVGID_55_);}
	.st55{fill:url(#SVGID_56_);}
	.st56{fill:url(#SVGID_57_);}
	.st57{opacity:0.3;fill:url(#SVGID_58_);}
	.st58{fill:url(#SVGID_59_);}
	.st59{opacity:0.4;fill:url(#SVGID_60_);}
	.st60{fill:url(#SVGID_61_);}
	.st61{fill:url(#SVGID_62_);}
	.st62{fill:url(#SVGID_63_);}
	.st63{fill:url(#SVGID_64_);}
	.st64{fill:url(#SVGID_65_);}
	.st65{fill:url(#SVGID_66_);}
	.st66{fill:url(#SVGID_67_);}
	.st67{fill:url(#SVGID_68_);}
	.st68{fill:url(#SVGID_69_);}
</style>
<g id="Background">
	<g>
		<g>
			<rect class="st0" width="3710" height="3710"/>
		</g>
	</g>
</g>
<g id="Illustration">
	<g>
		<path class="st1" d="M3234.9,1790.6c47.2,240.7,142.8,728.4-86,1054.8c-408.8,583.1-1809.8,558.1-2423.6-196.2
			c-42.9-52.7-402.4-509-292.9-1089.4C573.5,811.9,1415.7,270.8,2084,417.4c422.8,92.8,693.5,442.6,803.3,584.7
			C2934.1,1062.6,3148.1,1347.7,3234.9,1790.6z"/>
		<g>
			<g>
				<g>
					
						<linearGradient id="SVGID_1_" gradientUnits="userSpaceOnUse" x1="4362.6187" y1="599.4167" x2="4903.0894" y2="1489.1704" gradientTransform="matrix(0.9715 0.2369 -0.2369 0.9715 -3231.9116 -714.3309)">
						<stop  offset="0" style="stop-color:#FF9085"/>
						<stop  offset="1" style="stop-color:#FB6FBB"/>
					</linearGradient>
					<path class="st2" d="M1005.8,1767.9c0.8,0.6,1.6,1.2,2.4,1.8c47.8,36.2,106.4,67.3,178.8,88.1c14.4,3.1,28.8,6.1,43.2,9.2
						c20.4-30.9,34.2-64-6-87.9c-62.4-37.2-34.1-156.3-5-193.7c36-46.2,117.7-155.5,22.1-214.6c-79.6-49.2-141-64.6-118.9-177.5
						c22-112.9-21.2-197.6-123.9-216.5C890.5,957.1,839,793.6,740,819c-172.5,44.2-96.9,324.2,69.6,441.8
						c166.5,117.6,44,157.4,16,247.2c-38.2,122.7,136.7,138.5,168.8,198.6C1005.3,1726.9,1007.8,1748,1005.8,1767.9z"/>
					<g>
						<defs>
							<path id="SVGID_2_" d="M983.6,1835.2l232,56.6c21.5-29.5,53.5-85.9,8.7-112.7c-62.4-37.2-34.1-156.3-5-193.7
								c36-46.2,117.7-155.5,22.1-214.6c-79.6-49.2-141-64.6-118.9-177.5c22-112.9-21.2-197.6-123.9-216.5
								C890.5,957,839,793.6,740,819c-172.5,44.2-96.9,324.2,69.6,441.8c166.5,117.6,44,157.4,16,247.2
								c-38.2,122.7,136.7,138.5,168.8,198.6C1019.6,1753.6,999.8,1804.9,983.6,1835.2z"/>
						</defs>
						<clipPath id="SVGID_3_">
							<use xlink:href="#SVGID_2_"  style="overflow:visible;"/>
						</clipPath>
						<g class="st3">
							<path class="st4" d="M1101.7,1825.3l5.2,0.2c16.9-377.9-149.6-762.1-434.6-1002.8l-3.3,4
								C952.7,1066.4,1118.6,1449,1101.7,1825.3z"/>
							<path class="st4" d="M1093.3,1618.5l5,1.2c35.9-144.3,187.3-226,188.8-226.8l-2.4-4.6
								C1283.2,1389.2,1129.7,1472,1093.3,1618.5z"/>
							<path class="st4" d="M1102.9,1755.7l5-1.3c-37.5-146-298.7-230.2-301.3-231.1l-1.6,4.9
								C807.7,1529.1,1066.2,1612.5,1102.9,1755.7z"/>
							<path class="st4" d="M992.6,1261.7l5.1-0.9c-19.7-117.9,90.5-264.4,91.6-265.9l-4.1-3.1
								C1084.1,993.3,972.5,1141.6,992.6,1261.7z"/>
							<path class="st4" d="M874.6,1052.5l3.7-3.6C782.8,951.6,598.9,946.5,597,946.5l-0.1,5.2
								C598.7,951.7,780.6,956.8,874.6,1052.5z"/>
						</g>
					</g>
				</g>
				<g>
					<defs>
						<path id="SVGID_4_" d="M1315.8,2014.4l-256.6-0.9c0,0-47.8-131.8,15.3-224.4c128.9-189.1-45.7-288.8-112.5-341.5
							c-100.9-79.5-155.1-193.5-6.2-242.6c148.9-49.1,0.2-280-181.2-384.9c-177.5-102.6-97.5-477.4,307.1-290.5
							c241.6,111.6,202.8,368,214,502.2c11.2,134.1,210.6,145.9,141.8,309.5c-58.8,139.7-169.9,241.4-85.7,337.9
							C1436.1,1775.7,1444.5,1883.6,1315.8,2014.4z"/>
					</defs>
					<clipPath id="SVGID_5_">
						<use xlink:href="#SVGID_4_"  style="overflow:visible;"/>
					</clipPath>
					
						<linearGradient id="SVGID_6_" gradientUnits="userSpaceOnUse" x1="3201.7498" y1="548.1341" x2="2691" y2="1999.7399" gradientTransform="matrix(-1 -3.400000e-03 -3.400000e-03 1 4070.4146 -17.6354)">
						<stop  offset="0" style="stop-color:#FFC444"/>
						<stop  offset="0.9964" style="stop-color:#F36F56"/>
					</linearGradient>
					<path class="st5" d="M1315.8,2014.4l-256.6-0.9c0,0-47.8-131.8,15.3-224.4c128.9-189.1-45.7-288.8-112.5-341.5
						c-100.9-79.5-145.1-181.9-23.2-247.8c137.8-74.6,17.2-274.8-164.1-379.7c-177.5-102.6-97.5-477.4,307.1-290.5
						c241.6,111.6,202.8,368,214,502.2c11.2,134.1,210.6,145.9,141.8,309.5c-58.8,139.7-169.9,241.4-85.7,337.9
						C1436.1,1775.7,1444.5,1883.6,1315.8,2014.4z"/>
					<g class="st6">
						<path class="st7" d="M1204.6,2037.8l-5.3-1c0.6-3.3,61.1-333.7,22.3-679.3c-35.7-318.4-165.5-715.2-580.7-797.6l1.1-5.3
							c184.9,36.7,329.5,137.6,429.8,300.1c80.2,129.7,132.4,298.8,155.3,502.4C1265.9,1703.4,1205.3,2034.5,1204.6,2037.8z"/>
						<path class="st7" d="M1110.8,924.4l-5.4-0.7c22.9-178.8-44.4-433.1-45.1-435.7l5.2-1.4
							C1066.2,489.1,1133.8,744.5,1110.8,924.4z"/>
						<path class="st7" d="M1040.9,818C859,703.8,688.5,757.7,686.8,758.2l-1.7-5.1c1.7-0.6,174.6-55.3,358.7,60.3L1040.9,818z"/>
						<path class="st7" d="M1234.7,1584.9c-59.7-255.6-406.8-319.4-410.2-319.7l0.2-5.4c3.4,0,355.1,66.1,415.3,323.9L1234.7,1584.9
							z"/>
						<path class="st7" d="M1236.7,1476.7l-5.3-1.1c34.7-163.8,212.9-276.1,214.7-277.2l2.9,4.6
							C1447.2,1204.1,1270.9,1315.1,1236.7,1476.7z"/>
						<path class="st7" d="M1207.7,1984.6c-7.5-99.4-149.1-178.6-150.5-179.4l2.6-4.7c5.9,3.3,145.6,81.4,153.3,183.7L1207.7,1984.6
							z"/>
						<path class="st7" d="M1223.1,1906.6l-5.3-0.9c13.5-77.7,131.3-163.8,170-192.1c5.5-4,10.2-7.5,10.9-8.2l4,3.6
							c-1,1.1-4.1,3.4-11.7,9C1352.6,1745.9,1236.2,1831.1,1223.1,1906.6z"/>
					</g>
				</g>
				<g>
					
						<linearGradient id="SVGID_7_" gradientUnits="userSpaceOnUse" x1="-1225.9697" y1="457.6726" x2="-589.588" y2="2129.8203" gradientTransform="matrix(-0.9979 -6.530000e-02 -6.530000e-02 0.9979 1659.3927 96.1151)">
						<stop  offset="0" style="stop-color:#AA80F9"/>
						<stop  offset="0.9964" style="stop-color:#6165D7"/>
					</linearGradient>
					<path class="st8" d="M2481.1,1868.3c28.2,61,1.3,122-24.5,163c-6.2,0-9.7,1.7-16,3.3c-56.2,13.7-82.5,6.7-139.6,10.8
						c-12.3,0.9-48.8-8.3-63.5-13l-27.2-9.4c0,0-48.3-148.3,27.6-189.3c75.9-41,46.8-188.6,40.5-269.1
						c-17.3-218.4,218.8-198.6,219.1-481.1c0.1-75.1-24.9-218.4,38.4-278.3c72.2-68.2,124.9-1.3,171.3-58.3
						c72.5-89.1,190.2-121.1,260.4-29.4c69.2,90.5-14.9,270.7-224,415.5c-138.3,120.9-140.4,157.1-129.6,245.2
						c7.6,61.7,66.5,222.5-17.3,286.7C2512.9,1729.2,2448.8,1798.6,2481.1,1868.3z"/>
					<g>
						<defs>
							<path id="SVGID_8_" d="M2420.2,2081.3l-205.2-52.9c0,0-52.9-153.7,23-194.7c75.9-41,46.8-188.6,40.5-269.1
								c-17.3-218.4,218.8-198.6,219.1-481.1c0.1-75.1-24.9-218.4,38.4-278.3c72.2-68.2,124.9-1.3,171.3-58.3
								c72.5-89.1,190.2-121.1,260.4-29.4c69.2,90.5-14.9,270.7-224,415.5c-138.3,120.9-140.4,157.1-129.6,245.2
								c7.6,61.7,66.5,222.5-17.3,286.7c-83.8,64.2-147.8,133.6-115.5,203.3C2530.2,1974.4,2420.2,2081.3,2420.2,2081.3z"/>
						</defs>
						<clipPath id="SVGID_9_">
							<use xlink:href="#SVGID_8_"  style="overflow:visible;"/>
						</clipPath>
						<g class="st9">
							<path class="st4" d="M2330.8,2047.8l-4.2-0.5c3.1-24.8,6.5-49.9,10.2-74.3c27.2-181.3,70.3-353.6,128.1-511.9
								c49-134.2,109.3-260.3,179.2-374.8c56.2-92.1,118.8-177.3,186.2-253.1c47.4-53.3,96.6-101.5,146.2-143.3
								c8.7-7.3,17.9-14.2,26.9-21c11.9-9,24.3-18.2,35.3-28.3l2.8,3.1c-11.1,10.2-23.6,19.6-35.6,28.6
								c-8.9,6.7-18.1,13.6-26.7,20.8c-49.5,41.6-98.6,89.7-145.8,142.8c-67.2,75.7-129.7,160.6-185.7,252.5
								c-69.7,114.3-129.9,240.2-178.8,374.1c-57.8,158.1-100.8,330-127.9,511.1C2337.3,1998,2333.9,2023,2330.8,2047.8z"/>
							<path class="st4" d="M2568.5,1231.2l-3.8-1.8c76.6-163.2,9.3-464.8,8.6-467.9l4.1-0.9
								C2578.1,763.7,2645.7,1066.7,2568.5,1231.2z"/>
							<path class="st4" d="M2394.2,1706.6l-4-1.3c39.1-117,258.2-207.4,260.4-208.3l1.6,3.9
								C2650,1501.8,2432.7,1591.4,2394.2,1706.6z"/>
							<path class="st4" d="M2377.8,1775l-4.2-0.6c11.6-79.7-15.2-194.6-75.4-323.5c-3-6.5-3-6.5-2.9-7.3l4.2,0.6l-2.1-0.3l2-0.5
								c0.2,0.5,1.3,2.9,2.6,5.7C2362.6,1578.7,2389.5,1694.5,2377.8,1775z"/>
							<path class="st4" d="M2337.1,2002.5l-3.8-1.8c37.4-80.5,165-112.2,166.3-112.5l1,4.1
								C2499.3,1892.6,2373.6,1923.9,2337.1,2002.5z"/>
							<path class="st4" d="M2324.4,2048.1c-15.8-69.8-52.2-137.3-111.2-206.3l3.2-2.7c59.5,69.6,96.1,137.7,112.1,208.1
								L2324.4,2048.1z"/>
							<path class="st4" d="M2794.5,881.1l-3.7-2c47.6-88.4,77.2-192.3,86.9-226.4c2.4-8.3,3.2-11.2,3.7-12.1l3.8,1.8
								c-0.3,0.7-1.7,5.5-3.4,11.4C2872,688.1,2842.3,792.4,2794.5,881.1z"/>
							<path class="st4" d="M2695.8,1013.4l-2.9-3c67.1-66.1,255.4-63.9,263.4-63.8l-0.1,4.2
								C2954.2,950.8,2761.6,948.6,2695.8,1013.4z"/>
						</g>
					</g>
				</g>
				<g>
					<defs>
						<path id="SVGID_10_" d="M2147.9,2396.6l244.8,76.7c0,0,85.4-111.1,53.2-218.6c-65.7-219.2,130.8-261.5,210.5-291.5
							c120.2-45.3,206.3-137.6,79.3-229.3c-127.1-91.8,84.4-267,289-312.1c200.2-44.2,237.2-425.6-204.9-369.8
							c-264,33.3-304.6,289.5-355.8,414s-244.9,75.4-228.7,252.2c13.8,151,89,281.5-20.5,348
							C2105.4,2132.8,2064.8,2233.1,2147.9,2396.6z"/>
					</defs>
					<clipPath id="SVGID_11_">
						<use xlink:href="#SVGID_10_"  style="overflow:visible;"/>
					</clipPath>
					
						<linearGradient id="SVGID_12_" gradientUnits="userSpaceOnUse" x1="5922.8765" y1="417.7218" x2="5412.1133" y2="1869.3658" gradientTransform="matrix(0.9542 0.2991 -0.2991 0.9542 -2498.8721 -1062.5543)">
						<stop  offset="3.597120e-03" style="stop-color:#E38DDD"/>
						<stop  offset="1" style="stop-color:#9571F6"/>
					</linearGradient>
					<path class="st10" d="M2147.9,2396.6l244.8,76.7c0,0,85.4-111.1,53.2-218.6c-65.7-219.2,130.8-261.5,210.5-291.5
						c120.2-45.3,193.3-129.5,97.1-229.2c-108.8-112.8,66.6-267.1,271.2-312.3c200.2-44.2,237.2-425.6-204.9-369.8
						c-264,33.3-304.6,289.5-355.8,414s-244.9,75.4-228.7,252.2c13.8,151,89,281.5-20.5,348
						C2105.4,2132.8,2064.8,2233.1,2147.9,2396.6z"/>
					<g class="st11">
						<path class="st7" d="M2246.8,2452.6l5.4,0.7c0.4-3.3,42.6-336.5,184.1-654.2c130.3-292.7,374-631.7,794.7-584.7l0.6-5.4
							c-187.3-20.9-355.7,31.6-500.4,156.1c-115.7,99.4-216.5,244.8-299.9,431.9C2289.5,2115.3,2247.2,2449.2,2246.8,2452.6z"/>
						<path class="st7" d="M2672.9,1419.6l5.3,1c32.3-177.4,173.3-399.5,174.7-401.7l-4.6-2.9
							C2846.9,1018.2,2705.3,1241.2,2672.9,1419.6z"/>
						<path class="st7" d="M2771.6,1339.3c208-53.9,354.2,49.1,355.7,50.1l3.2-4.4c-1.5-1.1-149.7-105.5-360.2-51L2771.6,1339.3z"/>
						<path class="st7" d="M2355.1,2011.7c134.2-225.6,484.3-181.4,487.7-180.7l1.5-5.2c-3.2-1-358.4-44.4-493.8,183.2
							L2355.1,2011.7z"/>
						<path class="st7" d="M2385.8,1908l5.4,0.5c16.5-166.7-119.5-327.5-120.8-329.1l-4.1,3.5
							C2267.6,1584.5,2402.1,1743.7,2385.8,1908z"/>
						<path class="st7" d="M2259.9,2400.9c37.2-92.5,196.1-125.2,197.7-125.5l-1.1-5.3c-6.7,1.3-163.4,33.5-201.7,128.8
							L2259.9,2400.9z"/>
						<path class="st7" d="M2268.9,2321.9l5.4,0.7c10.6-78.1-75.6-195.8-103.9-234.5c-4-5.5-7.5-10.2-7.9-11.1l-4.9,2.2
							c0.6,1.4,2.9,4.5,8.5,12.1C2193.9,2129.5,2279.2,2245.9,2268.9,2321.9z"/>
					</g>
				</g>
				<g>
					
						<linearGradient id="SVGID_13_" gradientUnits="userSpaceOnUse" x1="1800.6599" y1="1483.0978" x2="2341.134" y2="2372.8572" gradientTransform="matrix(-0.9997 2.270000e-02 2.270000e-02 0.9997 4470.2871 119.3449)">
						<stop  offset="0" style="stop-color:#FFC444"/>
						<stop  offset="0.9964" style="stop-color:#F36F56"/>
					</linearGradient>
					<path class="st12" d="M2379.6,2458.6c-0.9,0.4-1.8,0.9-2.8,1.3c-54.4,25.1-118.4,42.9-193.5,47.6c-14.7-0.1-29.4-0.2-44.2-0.3
						c-13.3-34.6-19.7-69.8,24.7-84.6c68.9-22.9,66.9-145.4,46.5-188.1c-25.2-52.9-81.5-177.2,24.5-214.3
						c88.3-30.9,151.5-32.8,154.3-147.8c2.7-114.9,63.2-188.5,167.5-184.8c109.7,3.8,195.1-144.7,286.3-98.7
						c158.9,80.2,25,337.4-162.9,416.5c-187.9,79.1-76.7,144.3-68.7,238c10.9,128-163.2,105.9-207.5,157.7
						C2388.9,2418.7,2382,2438.8,2379.6,2458.6z"/>
					<g>
						<defs>
							<path id="SVGID_14_" d="M2386.9,2529.1l-238.7,5.4c-14.7-33.5-33.8-95.4,15.7-111.9c68.9-22.9,66.9-145.4,46.5-188.1
								c-25.2-52.9-81.5-177.2,24.5-214.3c88.3-30.9,151.5-32.8,154.3-147.8c2.7-114.9,63.2-188.5,167.5-184.8
								c109.7,3.8,195.1-144.7,286.3-98.7c158.9,80.2,25,337.4-162.9,416.5c-187.9,79.1-76.7,144.3-68.7,238
								c10.9,128-163.2,105.9-207.5,157.7C2369.2,2441.8,2377.5,2496,2386.9,2529.1z"/>
						</defs>
						<clipPath id="SVGID_15_">
							<use xlink:href="#SVGID_14_"  style="overflow:visible;"/>
						</clipPath>
						<g class="st13">
							<path class="st4" d="M2273.6,2494.1l-5.1-0.9c64.6-372.7,309.8-712.2,639.9-886l2.4,4.6
								C2582.1,1784.9,2338,2123,2273.6,2494.1z"/>
							<path class="st4" d="M2326.3,2294l-5.2,0.1c-4-148.6-134.4-261-135.7-262.1l3.3-3.9C2190.1,2029.2,2322.2,2143,2326.3,2294z"
								/>
							<path class="st4" d="M2287.4,2425.9l-4.6-2.3c67.9-134.5,341.2-160.7,343.9-161l0.5,5.2
								C2624.4,2268,2354,2293.9,2287.4,2425.9z"/>
							<path class="st4" d="M2501.2,1967.1l-4.8-1.9c44.6-110.9-31.5-277.7-32.3-279.4l4.7-2.2
								C2469.6,1685.3,2546.6,1854.1,2501.2,1967.1z"/>
							<path class="st4" d="M2661.5,1788.1l-2.8-4.3c114.1-74.4,294.8-39.9,296.7-39.6l-1,5.1
								C2952.5,1749,2773.8,1714.8,2661.5,1788.1z"/>
						</g>
					</g>
				</g>
			</g>
			<g>
				<g>
					<g>
						<linearGradient id="SVGID_16_" gradientUnits="userSpaceOnUse" x1="2780.2456" y1="2617.8232" x2="1577.6237" y2="1591.9315">
							<stop  offset="0" style="stop-color:#444B8C"/>
							<stop  offset="0.9964" style="stop-color:#26264F"/>
						</linearGradient>
						<path class="st14" d="M2487,481.1v2513.2c0,37.6-32.1,45.7-68.5,46.9l-1247.9,64.5l-18.9,0.6c-38.8,1.3-70.6-29.5-70.6-68.4
							V437.5c0-38.9,31.8-69.7,70.6-68.4l25.7,0.8l1252.5,97.4C2466.2,468.5,2487,443.5,2487,481.1z"/>
						
							<linearGradient id="SVGID_17_" gradientUnits="userSpaceOnUse" x1="-1242.0767" y1="3165.0173" x2="3189.5903" y2="3329.8713" gradientTransform="matrix(0 -1 1 0 -1389.0323 1734.3226)">
							<stop  offset="0" style="stop-color:#444B8C"/>
							<stop  offset="0.9964" style="stop-color:#26264F"/>
						</linearGradient>
						<path class="st15" d="M2525.8,481.1v2513.2c0,37.6-29.7,69.3-66.1,70.5l-1269.2,41.5c-38.8,1.3-70.6-29.5-70.6-68.4V437.5
							c0-38.9,31.8-69.7,70.6-68.4l1269.2,41.5C2496.1,411.8,2525.8,443.5,2525.8,481.1z"/>
						<linearGradient id="SVGID_18_" gradientUnits="userSpaceOnUse" x1="1163.8098" y1="1784.7289" x2="2484.7534" y2="1784.7289">
							<stop  offset="0" style="stop-color:#FF9085"/>
							<stop  offset="1" style="stop-color:#FB6FBB"/>
						</linearGradient>
						<path class="st16" d="M2484.8,619.2v2328.2c0,35.1-27.8,64.7-61.8,65.7l-1193.4,37.5c-36.1,1.1-65.7-27.6-65.7-63.8v-2404
							c0-36.2,29.6-65,65.7-64l1193.4,34.8C2457,554.6,2484.8,584.1,2484.8,619.2z"/>
					</g>
					<path class="st17" d="M1858.4,468c0,13.2-10.5,23.7-23.6,23.3c-13-0.4-23.6-11.5-23.6-24.7c0-13.3,10.6-23.7,23.6-23.3
						C1847.9,443.7,1858.4,454.8,1858.4,468z"/>
				</g>
				<g>
					<path class="st1" d="M2299.6,2033.1l-953.1,12.8c-12.1,0.2-21.8-9.5-21.8-21.5v-208.7c0-12.1,9.8-21.9,21.8-22l953.1-6.4
						c11.4-0.1,20.7,9.4,20.7,21.1v203.2C2320.3,2023.3,2311,2032.9,2299.6,2033.1z"/>
					<path class="st1" d="M2297.4,2417.5l-948.7,22.6c-13.3,0.3-24.1-10.2-24.1-23.5v-204.1c0-13.3,10.8-24.3,24.1-24.5l948.7-16.3
						c12.6-0.2,22.9,10.1,22.9,23.1v198.8C2320.3,2406.5,2310,2417.2,2297.4,2417.5z"/>
					<path class="st0" d="M2203.3,1163.6c0,209.5-166.6,379.3-374.3,379.4c-210,0-381.9-173.2-381.9-387s171.9-383.5,381.9-379.3
						C2036.7,780.9,2203.3,954.1,2203.3,1163.6z"/>
					<linearGradient id="SVGID_19_" gradientUnits="userSpaceOnUse" x1="1578.8657" y1="533.5717" x2="2736.5159" y2="2900.7063">
						<stop  offset="0" style="stop-color:#AA80F9"/>
						<stop  offset="0.9964" style="stop-color:#6165D7"/>
					</linearGradient>
					<path class="st18" d="M1983.4,1046.2c0,86.3-68.9,155.6-154.2,154.8c-85.6-0.8-155.2-71.9-155.2-158.8s69.6-156.2,155.2-154.8
						C1914.4,888.9,1983.4,959.9,1983.4,1046.2z"/>
					<linearGradient id="SVGID_20_" gradientUnits="userSpaceOnUse" x1="1420.054" y1="611.239" x2="2577.7046" y2="2978.3748">
						<stop  offset="0" style="stop-color:#AA80F9"/>
						<stop  offset="0.9964" style="stop-color:#6165D7"/>
					</linearGradient>
					<path class="st19" d="M1829,1542.9c91.8,0,175.5-33.2,240.3-88.2c-22.1-114.1-120.9-200.9-240.3-201.8
						c-120.1-0.9-220.8,85.4-243.4,200.7C1651.9,1509.5,1736.8,1542.9,1829,1542.9z"/>
					<linearGradient id="SVGID_21_" gradientUnits="userSpaceOnUse" x1="1131.1223" y1="752.5424" x2="2288.7732" y2="3119.6785">
						<stop  offset="0" style="stop-color:#AA80F9"/>
						<stop  offset="0.9964" style="stop-color:#6165D7"/>
					</linearGradient>
					<path class="st20" d="M1960.2,1944.3l-520.2,5.7c-17.7,0.2-32.2-14.2-32.2-31.9l0,0c0-17.8,14.5-32.4,32.2-32.6l520.2-4.8
						c17.2-0.2,31.3,14,31.3,31.5l0,0C1991.5,1929.7,1977.4,1944.1,1960.2,1944.3z"/>
					<g>
						<linearGradient id="SVGID_22_" gradientUnits="userSpaceOnUse" x1="768.9297" y1="929.6696" x2="1926.5815" y2="3296.8081">
							<stop  offset="0" style="stop-color:#AA80F9"/>
							<stop  offset="0.9964" style="stop-color:#6165D7"/>
						</linearGradient>
						<path class="st21" d="M1485.7,2310.6c0,22.7-18.3,41.5-41,42c-22.7,0.5-41-17.5-41-40.3c0-22.7,18.4-41.5,41-42
							C1467.4,2269.9,1485.7,2287.9,1485.7,2310.6z"/>
						<linearGradient id="SVGID_23_" gradientUnits="userSpaceOnUse" x1="894.2137" y1="868.4032" x2="2051.8645" y2="3235.5393">
							<stop  offset="0" style="stop-color:#AA80F9"/>
							<stop  offset="0.9964" style="stop-color:#6165D7"/>
						</linearGradient>
						<path class="st22" d="M1639.1,2307.5c0,22.6-18.2,41.3-40.6,41.8c-22.5,0.5-40.7-17.5-40.7-40.1s18.2-41.4,40.7-41.8
							C1620.9,2266.9,1639.1,2284.9,1639.1,2307.5z"/>
						<linearGradient id="SVGID_24_" gradientUnits="userSpaceOnUse" x1="1018.4821" y1="807.6277" x2="2176.1321" y2="3174.7625">
							<stop  offset="0" style="stop-color:#AA80F9"/>
							<stop  offset="0.9964" style="stop-color:#6165D7"/>
						</linearGradient>
						<path class="st23" d="M1791.2,2304.4c0,22.5-18,41.1-40.3,41.6c-22.3,0.5-40.4-17.4-40.4-40c0-22.6,18.1-41.2,40.4-41.6
							C1773.2,2264,1791.2,2281.9,1791.2,2304.4z"/>
						<linearGradient id="SVGID_25_" gradientUnits="userSpaceOnUse" x1="1141.7528" y1="747.3486" x2="2299.4043" y2="3114.4861">
							<stop  offset="0" style="stop-color:#AA80F9"/>
							<stop  offset="0.9964" style="stop-color:#6165D7"/>
						</linearGradient>
						<path class="st24" d="M1942.1,2301.3c0,22.4-17.9,41-40,41.4c-22.1,0.5-40.1-17.3-40.1-39.8s17.9-41,40.1-41.4
							C1924.2,2261,1942.1,2278.9,1942.1,2301.3z"/>
						<linearGradient id="SVGID_26_" gradientUnits="userSpaceOnUse" x1="1264.0295" y1="687.5434" x2="2421.6814" y2="3054.6819">
							<stop  offset="0" style="stop-color:#AA80F9"/>
							<stop  offset="0.9964" style="stop-color:#6165D7"/>
						</linearGradient>
						<path class="st25" d="M2091.8,2298.2c0,22.3-17.7,40.8-39.6,41.3c-21.9,0.5-39.7-17.3-39.7-39.7c0-22.4,17.8-40.9,39.7-41.3
							C2074.1,2258.1,2091.8,2275.9,2091.8,2298.2z"/>
					</g>
					<path class="st0" d="M1829,1552.2c-104.1,0-202.2-41.2-276.2-116.1c-74.1-75-114.9-174.5-114.9-280.2
						c0-106.6,41.4-205.9,116.6-279.6c73.9-72.4,171.4-111.1,274.8-109c102.8,2.1,199.2,44.5,271.5,119.3
						c72.1,74.7,111.9,173,111.9,276.9c0,103.9-39.8,201.5-111.9,274.8C2028.3,1511.7,1931.9,1552.2,1829,1552.2
						C1829,1552.2,1829,1552.2,1829,1552.2z M1821.3,785.9c-95.5,0-185.4,36.7-253.8,103.8c-71.6,70.1-111,164.7-111,266.3
						c0,100.8,38.9,195.7,109.5,267.1c70.5,71.3,163.9,110.6,263,110.6c0,0,0,0,0.1,0c201.2,0,365-166,365-370.1
						c0-204.1-163.8-373.5-365.2-377.6C1826.3,785.9,1823.8,785.9,1821.3,785.9z"/>
				</g>
				<linearGradient id="SVGID_27_" gradientUnits="userSpaceOnUse" x1="1766.845" y1="1736.1622" x2="2525.8301" y2="1736.1622">
					<stop  offset="0" style="stop-color:#FF9085"/>
					<stop  offset="1" style="stop-color:#FB6FBB"/>
				</linearGradient>
				<path class="st26" d="M2525.8,479.6c0-37.3-29.6-67.9-66.9-69.1l-692.1-22.6c256.7,272.1,314.5,500.3,321,656.3
					c18.8,445.2-364.8,639.2-293.4,1126.1c19.6,133.5,62.8,217.3,79.7,447.9c14.4,196.6-0.7,359.3-15.6,466.2l601.2-19.7
					c36.4-1.2,66.1-32.9,66.1-70.5V479.6z"/>
			</g>
			<linearGradient id="SVGID_28_" gradientUnits="userSpaceOnUse" x1="1111.0918" y1="2062.76" x2="1757.1252" y2="2086.7917">
				<stop  offset="0" style="stop-color:#FF9085"/>
				<stop  offset="1" style="stop-color:#FB6FBB"/>
			</linearGradient>
			<path class="st27" d="M1501.1,1734c7.3-214.5-66.2-304.1-85.7-326.1c-13.8-15.5-26.5-26.5-121.6-105
				c-70.7-58.3-129.5-106.7-171.3-140.9c-0.9,600.8-1.7,1201.6-2.5,1802.4c28.5-230.6,83.2-404.5,124.8-515.6
				C1361.3,2137.9,1491.7,2009.1,1501.1,1734z"/>
		</g>
		<g>
			
				<linearGradient id="SVGID_29_" gradientUnits="userSpaceOnUse" x1="2423.7388" y1="2450.1526" x2="2502.0203" y2="2351.0298" gradientTransform="matrix(0.9993 -3.740000e-02 3.740000e-02 0.9993 5.4506 79.4603)">
				<stop  offset="0" style="stop-color:#AA80F9"/>
				<stop  offset="0.9964" style="stop-color:#6165D7"/>
			</linearGradient>
			<path class="st28" d="M2722.9,2587.9c41.6-25.1,24.2-158.4-37-250.2c-86.9-130.3-268.7-187.3-304-146.2
				c-36.1,42.1,78,190.7,96.5,214.8C2545.6,2493.8,2673.7,2617.6,2722.9,2587.9z"/>
			
				<linearGradient id="SVGID_30_" gradientUnits="userSpaceOnUse" x1="153.9591" y1="3762.2485" x2="282.7272" y2="3762.2485" gradientTransform="matrix(-0.9369 0.3496 0.3496 0.9369 2143.646 -451.6694)">
				<stop  offset="0" style="stop-color:#444B8C"/>
				<stop  offset="0.9964" style="stop-color:#26264F"/>
			</linearGradient>
			<path class="st29" d="M3195.6,3139.1c-7.1,9.4-7.5,25.7,0.1,33c7.5,7.2,17.1,0.4,46-1.3c31-1.8,39.7,4.7,60.2-2.9
				c8.3-3.1,22.7-10.1,21.9-16.2c-0.6-4.2-8.4-5.8-34.6-12c-37.2-8.9-37.1-9.6-44.9-10.2C3224.7,3128.1,3205,3126.6,3195.6,3139.1z"
				/>
			
				<linearGradient id="SVGID_31_" gradientUnits="userSpaceOnUse" x1="726.2906" y1="3945.5146" x2="780.5914" y2="3833.1245" gradientTransform="matrix(-0.8508 0.5255 0.5255 0.8508 1784.9674 -593.7634)">
				<stop  offset="0" style="stop-color:#FFC444"/>
				<stop  offset="0.9964" style="stop-color:#F36F56"/>
			</linearGradient>
			<path class="st30" d="M3195,3088l32.5,43.1c-0.1,3-11.8,17.2-26.5,16.4l-39.1-39.1L3195,3088z"/>
			
				<linearGradient id="SVGID_32_" gradientUnits="userSpaceOnUse" x1="411.2348" y1="3812.8623" x2="540.0098" y2="3812.8623" gradientTransform="matrix(-0.9293 0.3692 0.3692 0.9293 2120.7793 -460.7804)">
				<stop  offset="0" style="stop-color:#444B8C"/>
				<stop  offset="0.9964" style="stop-color:#26264F"/>
			</linearGradient>
			<path class="st31" d="M3027.5,3248.9c-6.9,9.6-7,25.8,0.8,33c7.6,7,17.1,0.1,46-2.2c30.9-2.5,39.8,3.9,60.1-4.2
				c8.2-3.3,22.5-10.6,21.6-16.6c-0.7-4.2-8.5-5.6-34.9-11.3c-37.4-8.1-37.3-8.8-45.1-9.2
				C3056.4,3237.3,3036.7,3236.2,3027.5,3248.9z"/>
			
				<linearGradient id="SVGID_33_" gradientUnits="userSpaceOnUse" x1="928.1117" y1="3951.1565" x2="982.412" y2="3838.7673" gradientTransform="matrix(-0.8508 0.5255 0.5255 0.8508 1784.9674 -593.7634)">
				<stop  offset="0" style="stop-color:#FFC444"/>
				<stop  offset="0.9964" style="stop-color:#F36F56"/>
			</linearGradient>
			<path class="st32" d="M3026.3,3198.8l32.5,43.1c-0.1,3-11.8,17.2-26.5,16.4l-39.1-39.1L3026.3,3198.8z"/>
			
				<linearGradient id="SVGID_34_" gradientUnits="userSpaceOnUse" x1="1949.761" y1="2877.0789" x2="2265.5171" y2="2477.2578" gradientTransform="matrix(0.9993 -3.740000e-02 3.740000e-02 0.9993 5.4506 79.4603)">
				<stop  offset="0" style="stop-color:#AA80F9"/>
				<stop  offset="0.9964" style="stop-color:#6165D7"/>
			</linearGradient>
			<path class="st33" d="M2041.3,2212.9c48.7-18.7,123.3-41,216.2-44.5c104.5-3.9,188.5-7,248.3,40.2
				c199,157.2,101.4,571.3,87.1,617.4c-17.1,54.8-49.6,92-49.6,92c-19.5,22.3-38.7,35.4-49,42.2c-149.7,99-242.7,160.6-341,135.5
				c-13.1-3.3-72.5-23.9-105.3-73.4c-5.8-8.8-9.5-20.1-10.4-35.9C2022.2,2725.8,2052.9,2464,2041.3,2212.9z"/>
			
				<linearGradient id="SVGID_35_" gradientUnits="userSpaceOnUse" x1="2043.3365" y1="2834.3452" x2="2354.1182" y2="2440.8232" gradientTransform="matrix(1 -5.000000e-04 5.000000e-04 1 26.9588 49.4893)">
				<stop  offset="0" style="stop-color:#AA80F9"/>
				<stop  offset="0.9964" style="stop-color:#6165D7"/>
			</linearGradient>
			<path class="st34" d="M2127.1,2523.6c-20-54.6,0.7-117.1-43.8-144.3c-16.3-10-36.5-14.2-58.6-13.7
				c2.7,191.9,6.6,383.6,11.4,583.9c1.6,66.1,9.8,69.4,74,127.3c74.3,67.1,135.5,45.5,245.3,23.5c-143.8-88.4-179.6-136.4-165-215
				c17.1-91.5,184.5-118.5,177.8-183.6C2360.9,2632.8,2170.7,2642.9,2127.1,2523.6z"/>
			
				<linearGradient id="SVGID_36_" gradientUnits="userSpaceOnUse" x1="1808.225" y1="2922.6765" x2="2127.2993" y2="2518.6541" gradientTransform="matrix(0.9993 -3.740000e-02 3.370000e-02 0.901 7.5814 140.2558)">
				<stop  offset="0" style="stop-color:#AA80F9"/>
				<stop  offset="0.9964" style="stop-color:#6165D7"/>
			</linearGradient>
			<path class="st35" d="M2087.2,2216.4c-49.4-27.6-163,50.9-225.1,118.6c-28.9,31.5-129.3,141-98.1,281.9
				c5.1,23,28.6,130.4,133.2,179.5c93.7,44,217.3,27.1,314.3-43.7c13.2-11.4,26.4-22.8,39.5-34.1c12.9-13.5,25.8-27.1,38.6-40.6
				c-21.6-15-58.2-36.4-108.9-49.1c-77.2-19.4-112,7.8-131.1-13.3c-23.5-25.9,28.9-70.5,42.6-184.5
				C2096,2400.3,2142.4,2247.2,2087.2,2216.4z"/>
			
				<linearGradient id="SVGID_37_" gradientUnits="userSpaceOnUse" x1="1659.7864" y1="3683.3088" x2="2092.4031" y2="3135.5151" gradientTransform="matrix(0.938 -0.3467 0.3467 0.938 -203.6298 383.4162)">
				<stop  offset="0" style="stop-color:#444B8C"/>
				<stop  offset="0.9964" style="stop-color:#26264F"/>
			</linearGradient>
			<path class="st36" d="M2176.9,3064.2c6.1,108.6,46.9,48.4,139.3-49c97.3-102.6,326.4-283,479.2-214.1
				c113.9,51.3,102.8,203,284.8,298.2c32.1,16.8,60.1,26.4,77.4,31.6c19.7-18.2,39.4-36.5,59.2-54.7
				c-10.6-56.7-57.8-273-255.3-409.3c-47.7-33-138.9-96.4-254.1-94.9C2396,2576,2171.3,2964,2176.9,3064.2z"/>
			
				<linearGradient id="SVGID_38_" gradientUnits="userSpaceOnUse" x1="1907.1672" y1="3188.2827" x2="1416.8633" y2="3731.3889" gradientTransform="matrix(0.938 -0.3467 0.3467 0.938 -203.6298 383.4162)">
				<stop  offset="0" style="stop-color:#444B8C"/>
				<stop  offset="0.9964" style="stop-color:#26264F"/>
			</linearGradient>
			<path class="st37" d="M2033.4,3013.8c1.3,63.2,42.6,121.1,89,149.4c103.2,62.8,257.7-5,344.3-74.2
				c105.3-84.3,105.3-166.8,159.1-166.4c83.6,0.6,98.2,200.6,284.8,298.2c32.1,16.8,60.1,26.4,77.4,31.6
				c19.7-18.2,39.4-36.5,59.1-54.7c-32.4-122.5-82.5-211.4-119.4-266.8c-46.1-69.1-90.4-135.6-176.3-183.7
				c-90.5-50.7-176.9-53.1-213.6-53.7C2306.2,2689.9,2030,2849,2033.4,3013.8z"/>
			<g>
				
					<linearGradient id="SVGID_39_" gradientUnits="userSpaceOnUse" x1="2066.7944" y1="3159.7104" x2="1996.3313" y2="2960.0647" gradientTransform="matrix(0.9814 -0.1921 0.1921 0.9814 -127.8708 206.0307)">
					<stop  offset="0" style="stop-color:#311944"/>
					<stop  offset="1" style="stop-color:#893976"/>
				</linearGradient>
				<polygon class="st38" points="2662.1,2634.3 2088.8,2737.7 2255.1,2781.3 2670.9,2671.2 				"/>
				
					<linearGradient id="SVGID_40_" gradientUnits="userSpaceOnUse" x1="1758.9526" y1="2870.4624" x2="1784.7903" y2="3048.9771" gradientTransform="matrix(0.9814 -0.1921 0.1921 0.9814 -127.8708 206.0307)">
					<stop  offset="0" style="stop-color:#311944"/>
					<stop  offset="1" style="stop-color:#893976"/>
				</linearGradient>
				<path class="st39" d="M2071.6,2756.8L2071.6,2756.8c2.1,10.7,10.7,18.9,21.4,20.6l196.7,35.8l-8.9-49.8l-192-25.8
					C2078.1,2736.7,2069.5,2746.3,2071.6,2756.8z"/>
			</g>
			
				<linearGradient id="SVGID_41_" gradientUnits="userSpaceOnUse" x1="1767.0874" y1="2906.4907" x2="1913.1256" y2="2906.4907" gradientTransform="matrix(0.9814 -0.1921 0.1921 0.9814 -127.8708 206.0307)">
				<stop  offset="0" style="stop-color:#FFC444"/>
				<stop  offset="0.9964" style="stop-color:#F36F56"/>
			</linearGradient>
			<path class="st40" d="M2163.7,2711.8c-3.7-0.1,8.9-45.2,26-43.6c17.1,1.6,105.2,31.9,116.1,49.4c10.9,17.5,10.9,17.5,10.9,17.5
				s-34,9.5-56.8,6.5C2237,2738.5,2193.5,2712.6,2163.7,2711.8z"/>
			<g>
				<g>
					
						<linearGradient id="SVGID_42_" gradientUnits="userSpaceOnUse" x1="2514.8342" y1="2767.6277" x2="2377.4355" y2="2572.5217" gradientTransform="matrix(0.9971 -7.590000e-02 7.590000e-02 0.9971 -52.0933 75.7368)">
						<stop  offset="0" style="stop-color:#444B8C"/>
						<stop  offset="0.9964" style="stop-color:#26264F"/>
					</linearGradient>
					<path class="st41" d="M2263.2,2405.7l-12.6,375.9c-0.4,13,19,30.8,31.9,29.2l597.9-82.6c9.8-1.2,17.5-9.1,18.4-19l48-365.8
						c1.3-13.3-23.3-25-36.6-23.6l-628.1,65.6C2271.7,2386.5,2263.6,2395.1,2263.2,2405.7z"/>
					
						<linearGradient id="SVGID_43_" gradientUnits="userSpaceOnUse" x1="2251.2881" y1="3090.5068" x2="2551.9648" y2="2479.7578" gradientTransform="matrix(0.9971 -7.590000e-02 7.590000e-02 0.9971 -52.0933 75.7368)">
						<stop  offset="0" style="stop-color:#311944"/>
						<stop  offset="1" style="stop-color:#893976"/>
					</linearGradient>
					<path class="st42" d="M2277.8,2415.5l-12.6,375.9c-0.4,13,10.8,23.3,23.7,21.7L2895,2738c9.8-1.2,17.5-9.1,18.4-19l34.6-366.4
						c1.3-13.3-10-24.4-23.2-23l-628.1,65.6C2286.2,2396.3,2278.1,2404.9,2277.8,2415.5z"/>
				</g>
				
					<linearGradient id="SVGID_44_" gradientUnits="userSpaceOnUse" x1="2104.3899" y1="2698.4954" x2="2764.958" y2="2698.4954" gradientTransform="matrix(0.9971 -7.590000e-02 7.590000e-02 0.9971 -52.0933 75.7368)">
					<stop  offset="0" style="stop-color:#311944"/>
					<stop  offset="1" style="stop-color:#893976"/>
				</linearGradient>
				<path class="st43" d="M2656.3,2668.3c-54.8-18.5-39.3-62.8-106.1-111.5c-88.1-64.3-170.1-27.3-203.8-79.7
					c-10.5-16.3-16.9-42.5-4.1-86.6l-45.5,4.7c-10.5,1.1-18.6,9.8-18.9,20.3l-12.6,375.9c-0.4,13,10.8,23.3,23.7,21.7L2895,2738
					c9.8-1.2,17.5-9.1,18.4-19l4.8-50.6c-19.2-8.9-42-16.5-68.1-19.8C2759.4,2637.4,2719.4,2689.6,2656.3,2668.3z"/>
			</g>
			<g>
				
					<linearGradient id="SVGID_45_" gradientUnits="userSpaceOnUse" x1="2580.6223" y1="1621.3127" x2="2595.1687" y2="1233.8467" gradientTransform="matrix(0.9313 0.3642 -0.3642 0.9313 398.2288 -120.1834)">
					<stop  offset="0" style="stop-color:#FFC444"/>
					<stop  offset="0.9964" style="stop-color:#F36F56"/>
				</linearGradient>
				<path class="st44" d="M2261.9,2025.3c1.8,38.7-1.4,69.6-4.7,90.8c-3.8,24.3-6.9,30.6-11,35.9c0,0-1.3,1.7-2.8,3.1
					c-3.8,3.8-51.3,13-65.3,16.3c-1.5,0.3-28.9,7-36.8,21.8c-0.1,0.1-0.2,0.4-0.3,0.8c-2.7,14.7,81.6,61.5,166.2,46.3
					c51.8-9.3,98.1-40.8,94.6-56.3c-3.5-15.6-55.2-5.2-71.8-33.1c-11.5-19.4-0.5-47.9,12.9-71.7
					C2328.1,2053.9,2276.7,2050.7,2261.9,2025.3z"/>
				<g>
					
						<linearGradient id="SVGID_46_" gradientUnits="userSpaceOnUse" x1="-88.8391" y1="1867.6942" x2="-226.8325" y2="1517.2163" gradientTransform="matrix(-0.9773 -0.2121 -0.2121 0.9773 2475.9617 414.7617)">
						<stop  offset="0" style="stop-color:#444B8C"/>
						<stop  offset="0.9964" style="stop-color:#26264F"/>
					</linearGradient>
					<path class="st45" d="M2373,2070.4c33.1-9.6,54.5-123.6,26.6-137.4c-13.3-6.6-23.2,17-76.3,38.1
						c-42.5,16.9-60.5,11.4-72.2,30.1c-11.6,18.4-4.5,45.1-0.8,64c1.6,8.2,6.9,12.1,11.1,18.9c5.8,9.5,14.9,24.6,29.5,49.8
						c2.9-5.8,6.8-13,12.3-20.4c2.1-2.9,10.4-14.1,35.1-30.8C2354,2072,2369.2,2071.5,2373,2070.4z"/>
					
						<linearGradient id="SVGID_47_" gradientUnits="userSpaceOnUse" x1="1598.1223" y1="1689.9933" x2="1593.5867" y2="2055.4275" gradientTransform="matrix(0.9884 0.1519 -0.1519 0.9884 992.1978 145.2596)">
						<stop  offset="0" style="stop-color:#FFC444"/>
						<stop  offset="0.9964" style="stop-color:#F36F56"/>
					</linearGradient>
					<path class="st46" d="M2267.3,2110.4c0,0,13.6,39.8,56.8,46.4c38.7,5.9,63.1-78.3,42.8-101.8c-6.8-7.8-22.5-13.9-36.5-13.2
						c-8.3,0.5-11.7,3.1-25.2,3.6c-12.5,0.5-15.6-1.6-19.8,0.6c-5.3,2.8-10.6,11.3-8.7,37.9c-5.6-9-13.8-13.7-20.6-12.2
						c-1.1,0.2-4.1,1.5-6.2,3.8C2242.4,2084.2,2248.6,2098.6,2267.3,2110.4z"/>
					
						<linearGradient id="SVGID_48_" gradientUnits="userSpaceOnUse" x1="-135.0024" y1="1832.9984" x2="-233.7251" y2="1582.2609" gradientTransform="matrix(-0.9773 -0.2121 -0.2121 0.9773 2475.9617 414.7617)">
						<stop  offset="0" style="stop-color:#444B8C"/>
						<stop  offset="0.9964" style="stop-color:#26264F"/>
					</linearGradient>
					<path class="st47" d="M2284.7,2040.6c1.5,1.8-5.6,7.4-8.2,17c-5,18.7,9.1,45.5,28.1,51.7c11.3,3.7,15.9-2.6,35.4-0.4
						c12,1.4,21.5,5,27.4,7.7c1.4,22-8.8,41.3-24.7,47.9c-17.1,7-34.8-3.4-42.1-7.8c-4.9-2.9-20.7-12.2-26.2-29.8
						c-5.7-18.3,5.6-26.1-2.6-39.5c-4.1-6.7-10.7-10.7-15.1-23c-1.2-3.3-1.9-6.2-2.3-8.1C2266.6,2048.1,2282.5,2038,2284.7,2040.6z"
						/>
					
						<linearGradient id="SVGID_49_" gradientUnits="userSpaceOnUse" x1="-231.6253" y1="1681.9174" x2="-226.491" y2="1727.6891" gradientTransform="matrix(-0.9773 -0.2121 -0.2121 0.9773 2475.9617 414.7617)">
						<stop  offset="0" style="stop-color:#FFC444"/>
						<stop  offset="1" style="stop-color:#F36F56"/>
					</linearGradient>
					<path class="st48" d="M2351.9,2121.2c0,0-9.2,2.5-23.2-1.5c-0.7-0.2-1.5-0.2-1.7,0.2c-0.6,1.3,7.2,9.3,16.1,8.8
						c6.3-0.4,12.2-5,11.7-6.6C2354.7,2121.5,2353.3,2121.3,2351.9,2121.2z"/>
				</g>
			</g>
		</g>
		<g>
			
				<linearGradient id="SVGID_50_" gradientUnits="userSpaceOnUse" x1="774.4022" y1="1224.9286" x2="1056.0787" y2="1492.6606" gradientTransform="matrix(0.9531 0.3027 -0.3027 0.9531 179.6148 -132.1562)">
				<stop  offset="0" style="stop-color:#AA80F9"/>
				<stop  offset="0.9964" style="stop-color:#6165D7"/>
			</linearGradient>
			<path class="st49" d="M459.3,1669.6c-15.9-46.7-4.8-100.3,19.8-137.8c41.4-63.4,95.5-41.3,149.6-111.6
				c35-45.5,66.8-84.3,105.7-113.4c28.6-21.4,96.2-45.6,122.7-28.8c79.1,50.3-66,478.8-225.9,503.2
				C567,1791,483.1,1739.8,459.3,1669.6z"/>
			<g>
				
					<linearGradient id="SVGID_51_" gradientUnits="userSpaceOnUse" x1="1104.2583" y1="2979.552" x2="1186.4865" y2="2979.552" gradientTransform="matrix(0.9942 0.1073 -0.1073 0.9942 -84.7215 -32.2266)">
					<stop  offset="0" style="stop-color:#AA80F9"/>
					<stop  offset="0.9964" style="stop-color:#6165D7"/>
				</linearGradient>
				<path class="st50" d="M762.6,3022.8c4.2,9,9,22.2,10.2,38.6c0.6,7.2,0.3,13.7-0.2,19.4c-4.6,6.8-26.3,30.3-55.6,36.1
					c-18.1,3.6-47.5-11.8-14.2-32.6c33.3-20.8,38.3-25.8,28.5-79c-2.5-13.7-1.5-18.7,0.6-19.6
					C736.9,2983.5,751.2,3004.5,762.6,3022.8z"/>
				
					<linearGradient id="SVGID_52_" gradientUnits="userSpaceOnUse" x1="1261.2643" y1="3003.457" x2="1343.4923" y2="3003.457" gradientTransform="matrix(0.9942 0.1073 -0.1073 0.9942 -84.7215 -32.2266)">
					<stop  offset="0" style="stop-color:#AA80F9"/>
					<stop  offset="0.9964" style="stop-color:#6165D7"/>
				</linearGradient>
				<path class="st51" d="M916.2,3063.4c4.2,9,9,22.2,10.2,38.6c0.6,7.2,0.3,13.7-0.2,19.4c-4.6,6.8-26.3,30.3-55.6,36.1
					c-18.1,3.6-47.5-11.8-14.2-32.6c33.3-20.8,38.3-25.8,28.5-79c-2.5-13.7-1.5-18.7,0.6-19.6
					C890.4,3024.1,904.7,3045.1,916.2,3063.4z"/>
				
					<linearGradient id="SVGID_53_" gradientUnits="userSpaceOnUse" x1="751.5429" y1="2446.4404" x2="1251.452" y2="2446.4404" gradientTransform="matrix(0.9998 -1.740000e-02 1.740000e-02 0.9998 -179.4408 43.821)">
					<stop  offset="0" style="stop-color:#444B8C"/>
					<stop  offset="0.9964" style="stop-color:#26264F"/>
				</linearGradient>
				<path class="st52" d="M1075.8,1952.6c11,67,22,134.1,33,201.1c-24.1,63.4-46.5,132.5-65.5,207.1
					c-68.6,269.5-111.4,529.1-114.5,715.1c-15.1,5.5-30.2,10.9-45.3,16.4c-27.1-102.2-18.9-256.7-42.9-438.9
					c-28.4-215.3-9.1-383.5-19-384.1c-9.5-0.6-36,153.5-36.1,329.4c-0.1,186-21.4,335.7-7.7,443.2c-18.1,1.1-36.2,2.2-54.3,3.2
					c-50.1-142.2-72-311.5-97.4-535.5c-17.6-155.5-38.4-362.1,65.5-575.3c10.4-21.3,46.6-68.5,53.4-80.2
					C864.2,1877,956.7,1929.8,1075.8,1952.6z"/>
				
					<linearGradient id="SVGID_54_" gradientUnits="userSpaceOnUse" x1="778.1605" y1="2419.1067" x2="1260.9958" y2="2419.1067" gradientTransform="matrix(0.9947 0.1031 -0.1031 0.9947 68.8918 -44.2863)">
					<stop  offset="0" style="stop-color:#444B8C"/>
					<stop  offset="0.9964" style="stop-color:#26264F"/>
				</linearGradient>
				<path class="st53" d="M1043.3,2360.8c19-74.6,41.4-143.7,65.5-207.1c-11-67-22-134.1-33-201.1
					c-119.1-22.8-211.7-75.7-330.8-98.5c-6.8,11.7-43,58.9-53.4,80.2c-35,71.9-55.8,143-67.4,211.6c230.5-2.5,297.2,45.5,315.6,89.7
					c29.2,70.4-59.7,141.9-28.2,284.4c9.5,42.9,23.6,64,25.2,117.7c2.2,70.5-20.8,77.3-24.4,149c-3.9,78.4-31.1,155.1-18.4,210.7
					c7.9,34.6,17.2,62.7,24.3,82.2c3.5-1.3,7-2.5,10.5-3.8C931.9,2889.9,974.7,2630.3,1043.3,2360.8z"/>
			</g>
			
				<linearGradient id="SVGID_55_" gradientUnits="userSpaceOnUse" x1="1767.9932" y1="1545.8309" x2="829.4194" y2="1051.2178" gradientTransform="matrix(0.9947 0.1031 -0.1031 0.9947 68.8918 -44.2863)">
				<stop  offset="0" style="stop-color:#311944"/>
				<stop  offset="1" style="stop-color:#6B3976"/>
			</linearGradient>
			<path class="st54" d="M977.1,1022.4c7.4,9.9-3.6,23.1-5.8,71.4c-1,22.1,0.3,40.6,1.8,53.7c0.4,11.9,1.1,22.9,2,32.7
				c0.7,7.1,1.4,12.7,2.4,18.7c1.9,11,4.6,22,8.1,32.5c0.2,0.7-0.1,1.4-0.8,1.7c0,0-0.1,0-0.1,0c-0.7,0.2-1.5-0.2-1.8-0.9
				c-3.5-10.7-6.3-21.7-8.2-32.9c-1-6-1.8-11.7-2.5-18.9c-0.5-5.1-0.9-10.6-1.3-16.4c-1.6,15.2-1.9,32,3.5,54.4
				c16.4,68.1-36.4,112.9-78.1,114.7c-48,2.1-80.6-36-90.7-48.4c-40.6-50.2-48.4-132-10.2-191.8
				C845.6,1014.5,959,998.2,977.1,1022.4z"/>
			
				<linearGradient id="SVGID_56_" gradientUnits="userSpaceOnUse" x1="1757.2773" y1="1566.1482" x2="818.7114" y2="1071.5392" gradientTransform="matrix(0.9947 0.1031 -0.1031 0.9947 68.8918 -44.2863)">
				<stop  offset="0" style="stop-color:#311944"/>
				<stop  offset="1" style="stop-color:#6B3976"/>
			</linearGradient>
			<path class="st55" d="M855.6,1088c2.1-7.6,11.3-38.6,39.7-58.1c53.9-36.9,140.2-7.3,189.8,36.2c51.8,45.5,30.3,76.9,81.2,127.4
				c55.3,54.8,94.1,30.9,171,83.9c30.2,20.8,111.8,77,117.2,164.6c4.7,75.7-48.8,151.5-114.3,180.8
				c-112.1,50.1-252.6-39.3-318.9-121.6c-63.6-78.9-20.7-98.2-111-250.5C877.7,1195.6,840.3,1144.8,855.6,1088z"/>
			
				<linearGradient id="SVGID_57_" gradientUnits="userSpaceOnUse" x1="1005.4067" y1="1550.9626" x2="1822.004" y2="2068.4097" gradientTransform="matrix(0.969 0.2472 -0.2472 0.969 191.9047 -160.8439)">
				<stop  offset="0" style="stop-color:#AA80F9"/>
				<stop  offset="0.9964" style="stop-color:#6165D7"/>
			</linearGradient>
			<path class="st56" d="M774.8,1308.8c-41,41.5-52,91.3-55.2,113.6c-10,69.3,17.2,125.9,23.6,140.7c30.2,70.2,19.1,208.5-157,506.4
				c16.7,14,74.5,117.2,101.8,67.7c37.2-67.5,206.1-542.6,43.2,20.4c-2.1,7.4,14.4,5.9,22,8.7c54.1,20.2,119,34.9,192.8,34
				c115.7-1.4,203.8-40.6,250.4-65.8c-31.6-73.7-64.7-173.4-78.8-294.4c-27-230.8,29.2-417,68.3-517.4
				c-35.7-24.7-148.8-96.2-282.6-73.1C870,1255.4,818,1265.1,774.8,1308.8z"/>
			
				<linearGradient id="SVGID_58_" gradientUnits="userSpaceOnUse" x1="930.9307" y1="1502.7839" x2="1704.9337" y2="1993.2406" gradientTransform="matrix(0.9947 0.1031 -0.1031 0.9947 68.8918 -44.2863)">
				<stop  offset="0" style="stop-color:#AA80F9"/>
				<stop  offset="0.9964" style="stop-color:#6165D7"/>
			</linearGradient>
			<path class="st57" d="M1117.5,1840.1c-27-230.8,29.2-417,68.3-517.4c-35.7-24.7-148.8-96.2-282.6-73.1
				c-33.3,5.8-85.3,15.5-128.5,59.2c-32.6,33-46.2,71.3-52.1,96.8c1-0.2,2.4-0.4,4-0.6c82.4-11.4,177.6,54.9,210.1,117.6
				c54.3,104.6-70.6,190.1-67.5,356c1.7,89.6,40.7,195.7,159.8,314c74.9-12.9,132.6-39.4,167.2-58.2
				C1164.8,2060.8,1131.7,1961.1,1117.5,1840.1z"/>
			
				<linearGradient id="SVGID_59_" gradientUnits="userSpaceOnUse" x1="2123.0625" y1="1325.9576" x2="2138.0332" y2="927.1894" gradientTransform="matrix(-0.9999 -1.640000e-02 -1.640000e-02 0.9999 3063.3711 184.0832)">
				<stop  offset="0" style="stop-color:#FFC444"/>
				<stop  offset="0.9964" style="stop-color:#F36F56"/>
			</linearGradient>
			<path class="st58" d="M934.6,1166.6c-11.7,23.8-21.6,53.6-8.7,73.6c7.9,12.2,20.9,19,33.8,25.4c30.4,15.1,44.5,9,50.5,18.1
				c13.2,20.2-24.2,97.2-85.2,103.9c-60.7,6.7-115.7-59.5-106.6-87.5c8.2-25.2,68-17.3,78.7-49.2c5.4-16-4.5-33.9-13.1-45.9
				l-7.2,0.6L934.6,1166.6z"/>
			
				<linearGradient id="SVGID_60_" gradientUnits="userSpaceOnUse" x1="998.4723" y1="1368.1106" x2="1010.7328" y2="1041.53" gradientTransform="matrix(0.9947 0.1031 -0.1031 0.9947 68.8918 -44.2863)">
				<stop  offset="0" style="stop-color:#FFC444"/>
				<stop  offset="0.9964" style="stop-color:#F36F56"/>
			</linearGradient>
			<path class="st59" d="M1010.2,1283.7c-6-9.2-20.1-3-50.5-18.1c-12.9-6.4-25.9-13.2-33.8-25.4c-12.9-20-3-49.8,8.7-73.6l-57.7,39
				l7.2-0.6c6.9,9.6,14.4,22.8,14.5,35.8c4.2,2.9,7.7,6.1,10.3,9.2c-8,17.2-10.7,32-11.7,41.6c-1.6,15-2.8,26.1,3.6,36.6
				c7,11.5,19,15.5,29.4,19c23.2,7.8,45,5.2,59.2,1.8C1009,1324.3,1017.6,1295,1010.2,1283.7z"/>
			
				<linearGradient id="SVGID_61_" gradientUnits="userSpaceOnUse" x1="2128.655" y1="1186.6033" x2="2124.6177" y2="1511.8873" gradientTransform="matrix(-0.9871 0.1603 0.1672 1.0296 2789.7134 -426.1559)">
				<stop  offset="0" style="stop-color:#FFC444"/>
				<stop  offset="0.9964" style="stop-color:#F36F56"/>
			</linearGradient>
			<path class="st60" d="M923.9,1189.6c0,0,2,30.6-27.8,35.7c-36.7,6.3-56.9-89.9-48.9-96.9c9.3-8.1,21,6.1,44.1-3.4
				c9.8-4,16.4-18.5,23.8-5.3c8.5,15,8.3,44.2,8.3,44.2s7.5-8.6,10.3-0.2C937.5,1174.6,930.2,1183.1,923.9,1189.6z"/>
			
				<linearGradient id="SVGID_62_" gradientUnits="userSpaceOnUse" x1="1788.6464" y1="1506.6378" x2="850.0756" y2="1012.0262" gradientTransform="matrix(0.9947 0.1031 -0.1031 0.9947 68.8918 -44.2863)">
				<stop  offset="0" style="stop-color:#311944"/>
				<stop  offset="1" style="stop-color:#6B3976"/>
			</linearGradient>
			<path class="st61" d="M869.2,1078.1c-13,10.8-21.9,33.3-14.9,45.9c10,18,46.4,4.1,58.4,26.1c5.3,9.6,3.6,22.1,6.9,22.2
				c2.7,0.1,5.2-8.4,7.4-15.4c12.5-38.4,22.8-41.8,21-53.3C944.2,1080.1,895.9,1056,869.2,1078.1z"/>
			
				<linearGradient id="SVGID_63_" gradientUnits="userSpaceOnUse" x1="1287.3954" y1="1355.5757" x2="1750.382" y2="1648.9529" gradientTransform="matrix(0.9531 0.3027 -0.3027 0.9531 179.6148 -132.1562)">
				<stop  offset="0" style="stop-color:#AA80F9"/>
				<stop  offset="0.9964" style="stop-color:#6165D7"/>
			</linearGradient>
			<path class="st62" d="M1084.8,1319.4c40.5,2.6,44.5-9.6,89.3,23.2c128.6,94.2,212,359.9,84.5,488.3
				c-70.9,71.4-200.4,115-310.5,60.5c-89.6-44.4-122.7-132.1-130.7-155.6c1.5-23.6,3-47.1,4.4-70.7c50.3,54.3,93.6,68,125,69.7
				c53.4,2.9,75.6-29,166.9-34c35.6-2,55.5,1.6,59.6-8.1c8.6-20-69.1-52.3-105.7-111.6C1041,1537.9,1024.9,1461.9,1084.8,1319.4z"/>
			
				<linearGradient id="SVGID_64_" gradientUnits="userSpaceOnUse" x1="1768.931" y1="1544.0297" x2="830.3643" y2="1049.4202" gradientTransform="matrix(0.9947 0.1031 -0.1031 0.9947 68.8918 -44.2863)">
				<stop  offset="0" style="stop-color:#311944"/>
				<stop  offset="1" style="stop-color:#6B3976"/>
			</linearGradient>
			<path class="st63" d="M926.9,1120.6c-9.1,8.1,5.8,39.6,35.9,102.3c18.6,38.6,27.9,57.9,34.2,66.5c34.3,46.2,96.1,85.5,162.4,88.7
				c45.5,2.2,53.9-14.5,90.4-4.5c55,15.1,82,65.9,84.8,63.6c3.1-2.5-26.8-66.9-94.1-125c-55.1-47.6-72.5-36.7-159.8-103.8
				c-6.3-4.9-33.1-25.6-71.3-49.7C964.6,1130.4,936,1112.6,926.9,1120.6z"/>
			<g>
				
					<linearGradient id="SVGID_65_" gradientUnits="userSpaceOnUse" x1="1148.8549" y1="1334.2428" x2="1060.947" y2="1438.0029" gradientTransform="matrix(0.9531 0.3027 -0.3027 0.9531 179.6148 -132.1562)">
					<stop  offset="0" style="stop-color:#FFC444"/>
					<stop  offset="0.9964" style="stop-color:#F36F56"/>
				</linearGradient>
				<path class="st64" d="M568.9,1475.5l93.5,231.4c1.6,4.3,5.1,7.6,9.4,9l107.8,34.2c11.1,3.5,21.8-6.6,18.8-17.9l-57.6-218.7
					c-1.3-5-5.1-16.1-14.6-19.1l-131.3-38C583.2,1452.9,564.7,1464.1,568.9,1475.5z"/>
				
					<linearGradient id="SVGID_66_" gradientUnits="userSpaceOnUse" x1="854.5153" y1="1501.9603" x2="1337.3156" y2="1501.9603" gradientTransform="matrix(0.9531 0.3027 -0.3027 0.9531 179.6148 -132.1562)">
					<stop  offset="0" style="stop-color:#FF9085"/>
					<stop  offset="1" style="stop-color:#FB6FBB"/>
				</linearGradient>
				<path class="st65" d="M567.8,1479.2l82.8,223.9c1.6,4.3,5.1,7.6,9.4,9l107.8,34.2c11.1,3.5,21.8-6.6,18.8-17.9L729,1509.7
					c-1.3-5-5.2-9-10.1-10.4l-133-39.4C574.2,1456.4,563.5,1467.7,567.8,1479.2z"/>
			</g>
			
				<linearGradient id="SVGID_67_" gradientUnits="userSpaceOnUse" x1="-2106.6089" y1="517.4727" x2="-1938.1598" y2="517.4727" gradientTransform="matrix(0.6233 0.7821 -0.7821 0.6233 2472.9751 2959.9968)">
				<stop  offset="0" style="stop-color:#FFC444"/>
				<stop  offset="0.9964" style="stop-color:#F36F56"/>
			</linearGradient>
			<path class="st66" d="M827.6,1684.2l-11.3-10.6c0,0-16.1-22-28.3-32.7c-12.1-10.7-24-12.8-36.9-2.6c-12.9,10.3-1.9,27.3,7.4,42.1
				c5.7,9,21.6,14.7,35,18.2c9.4,2.4,25.7,14.6,25.7,14.6L827.6,1684.2z"/>
			
				<linearGradient id="SVGID_68_" gradientUnits="userSpaceOnUse" x1="-1858.4392" y1="4026.199" x2="-1689.9828" y2="4026.199" gradientTransform="matrix(-0.7871 0.6169 -0.6169 -0.7871 1651.0991 5826.4858)">
				<stop  offset="0" style="stop-color:#FFC444"/>
				<stop  offset="0.9964" style="stop-color:#F36F56"/>
			</linearGradient>
			<path class="st67" d="M580.3,1582.9l10.7-11.3c0,0,22.2-15.9,32.9-28c10.8-12.1,13-23.9,2.9-36.9c-10.2-13-27.2-2.2-42.1,7
				c-9.1,5.6-14.9,21.5-18.5,34.8c-2.5,9.3-14.9,25.6-14.9,25.6L580.3,1582.9z"/>
			
				<linearGradient id="SVGID_69_" gradientUnits="userSpaceOnUse" x1="944.0962" y1="1510.8091" x2="822.4772" y2="1772.6473" gradientTransform="matrix(0.9531 0.3027 -0.3027 0.9531 179.6148 -132.1562)">
				<stop  offset="0" style="stop-color:#AA80F9"/>
				<stop  offset="0.9964" style="stop-color:#6165D7"/>
			</linearGradient>
			<path class="st68" d="M549.6,1560.2c13.8,6.9,27.6,13.8,41.5,20.7c4.2,5.4,54.6,71.5,27.7,134.9c-3.5,8.2-16.7,39.4-42.8,45
				c-40.2,8.5-98.9-46.6-97-105.9C480.2,1615.2,508.5,1578.7,549.6,1560.2z"/>
		</g>
	</g>
</g>
</svg>
