<?xml version="1.0" encoding="utf-8"?>
<!-- Generator: Adobe Illustrator 23.1.0, SVG Export Plug-In . SVG Version: 6.00 Build 0)  -->
<svg version="1.1" xmlns="http://www.w3.org/2000/svg" xmlns:xlink="http://www.w3.org/1999/xlink" x="0px" y="0px"
	 viewBox="0 0 3710 3710" style="enable-background:new 0 0 3710 3710;" xml:space="preserve">
<style type="text/css">
	.st0{fill:#FFFFFF;}
	.st1{fill:#F4F7FA;}
	.st2{opacity:0.5;clip-path:url(#SVGID_3_);}
	.st3{fill:url(#SVGID_4_);}
	.st4{opacity:0.8;clip-path:url(#SVGID_7_);}
	.st5{fill:url(#SVGID_8_);}
	.st6{fill:url(#SVGID_9_);}
	.st7{fill:url(#SVGID_10_);}
	.st8{fill:url(#SVGID_11_);}
	.st9{opacity:0.5;}
	.st10{opacity:0.8;}
	.st11{fill:url(#SVGID_12_);}
	.st12{fill:url(#SVGID_13_);}
	.st13{fill:#D8DEE8;}
	.st14{fill:url(#SVGID_14_);}
	.st15{fill:url(#SVGID_15_);}
	.st16{fill:url(#SVGID_16_);}
	.st17{fill:url(#SVGID_17_);}
	.st18{fill:url(#SVGID_18_);}
	.st19{fill:url(#SVGID_19_);}
	.st20{fill:url(#SVGID_20_);}
	.st21{fill:url(#SVGID_21_);}
	.st22{fill:url(#SVGID_22_);}
	.st23{fill:url(#SVGID_23_);}
	.st24{fill:url(#SVGID_24_);}
	.st25{fill:url(#SVGID_25_);}
	.st26{fill:url(#SVGID_26_);}
	.st27{fill:url(#SVGID_27_);}
	.st28{opacity:0.3;fill:url(#SVGID_28_);}
	.st29{fill:url(#SVGID_29_);}
	.st30{fill:url(#SVGID_30_);}
	.st31{opacity:0.3;fill:url(#SVGID_31_);}
	.st32{fill:#9D3060;}
	.st33{fill:url(#SVGID_32_);}
	.st34{fill:url(#SVGID_33_);}
	.st35{fill:url(#SVGID_34_);}
	.st36{fill:url(#SVGID_35_);}
	.st37{fill:url(#SVGID_36_);}
	.st38{fill:url(#SVGID_37_);}
	.st39{fill:url(#SVGID_38_);}
	.st40{fill:url(#SVGID_39_);}
	.st41{fill:url(#SVGID_40_);}
	.st42{opacity:0.3;}
	.st43{fill:url(#SVGID_41_);}
	.st44{fill:url(#SVGID_42_);}
	.st45{fill:url(#SVGID_43_);}
	.st46{fill:url(#SVGID_44_);}
	.st47{fill:url(#SVGID_45_);}
	.st48{opacity:0.3;fill:url(#SVGID_46_);}
	.st49{fill:url(#SVGID_47_);}
</style>
<g id="Background">
	<g>
		<g>
			<rect class="st0" width="3710" height="3710"/>
		</g>
	</g>
</g>
<g id="Illustration">
	<g>
		<path class="st1" d="M1859.5,474.8C1145.1,453.7,526.4,972,432.9,1652.1c-102.2,743.6,460.4,1412.7,1152.6,1519.8
			c861,133.3,1696.1-637.8,1621.1-1474.3C3150.1,1067.4,2585.6,496.2,1859.5,474.8z"/>
		<g>
			<g>
				<defs>
					<path id="SVGID_1_" d="M1919.2,2431.5c-142.7,7.9-414.7-562.4-224.7-865.8c79.3-126.6,199-142.8,249.6-304
						c45.2-143.9-30.2-194.6-6.5-354.8c33.3-225.3,233.1-469.6,417.1-450.8c92.3,9.4,195.6,86.5,225.5,196.1
						c23.9,87.8-48.7,177-23,194.8c21.1,14.6,63.8-44.9,101.4-33.8c55.5,16.3,93.7,184.4,43.6,325.3
						c-85.8,241.3-376.1,249.7-388,423.6c-7.6,110.8,107.8,145.4,88.8,259.6c-16.7,100.5-113.6,119.6-237.7,243.9
						C1971,2260.4,1995.7,2427.3,1919.2,2431.5z"/>
				</defs>
				<linearGradient id="SVGID_2_" gradientUnits="userSpaceOnUse" x1="2426.1672" y1="729.902" x2="1775.1241" y2="2413.1646">
					<stop  offset="0" style="stop-color:#FF9085"/>
					<stop  offset="1" style="stop-color:#FB6FBB"/>
				</linearGradient>
				<use xlink:href="#SVGID_1_"  style="overflow:visible;fill:url(#SVGID_2_);"/>
				<clipPath id="SVGID_3_">
					<use xlink:href="#SVGID_1_"  style="overflow:visible;"/>
				</clipPath>
				<g class="st2">
					<path class="st0" d="M1955.3,2556.9c-2.9,0.8-6.1-0.2-7.9-2.8c-1.6-2.3-1.6-5.2-0.4-7.4c0-4.3-2.8-18.3-6.1-34.3
						c-18.5-90.2-67.6-329.7-18.8-710.9c61.4-479.4,252.7-1002.2,568.6-1554.1c2-3.4,6.3-4.6,9.7-2.6c3.4,2,4.6,6.3,2.6,9.7
						c-339.4,592.9-710,1465.4-548.2,2255c7.3,35.7,8.6,42.2,2.5,46.4C1956.7,2556.3,1956,2556.7,1955.3,2556.9z"/>
					<path class="st0" d="M2052.6,1293.3c-3.6,1.1-7.5-0.9-8.7-4.5c-1.3-3.7,0.7-7.8,4.4-9.1c306.4-107.1,488-216.9,586.5-290
						c106.6-79.2,141.3-133.9,141.6-134.4c2.1-3.3,6.5-4.4,9.8-2.3c3.3,2.1,4.4,6.5,2.3,9.8c-1.4,2.3-35.8,56.8-144.1,137.5
						c-99.3,74-282.5,184.9-591.5,292.9C2052.9,1293.3,2052.7,1293.3,2052.6,1293.3z"/>
					<path class="st0" d="M2163.8,948.9c-1.4,0.4-3,0.4-4.4-0.2c-83.4-30.5-140.9-133.9-170.8-307.2
						c-22.1-127.8-20.3-248.4-20.2-249.6c0.1-3.9,3.3-7.1,7.3-7c3.9,0.1,7.1,3.3,7,7.3c-0.1,4.7-6.1,474.4,181.7,543.1
						c3.7,1.4,5.6,5.5,4.3,9.2C2167.7,946.7,2165.9,948.2,2163.8,948.9z"/>
					<path class="st0" d="M1921.7,1894.5c-2,0.6-4.2,0.3-6.1-1c-115.4-79.9-171.1-219.6-197.6-322.7
						c-28.6-111.2-30.1-205.1-30.1-206c-0.1-3.9,3.1-7.2,7-7.2c3.9-0.1,7.2,3.1,7.2,7c0,0.9,1.5,93.3,29.7,203
						c25.9,100.6,80.2,236.8,191.8,314.2c3.2,2.2,4,6.7,1.8,9.9C1924.6,1893.1,1923.2,1894,1921.7,1894.5z"/>
				</g>
			</g>
		</g>
		<g>
			
				<linearGradient id="SVGID_4_" gradientUnits="userSpaceOnUse" x1="1794.5299" y1="1860.3716" x2="1180.4252" y2="3067.8801" gradientTransform="matrix(0.976 -0.2177 0.2177 0.976 184.3043 451.4541)">
				<stop  offset="0" style="stop-color:#FFC444"/>
				<stop  offset="0.9964" style="stop-color:#F36F56"/>
			</linearGradient>
			<path class="st3" d="M1875.8,2747.2c-46.7-227.8-40.2-404.3-26.6-519.4c10.7-90.4,34.5-216.7,98.8-232.6
				c30.8-7.6,48.4,15.7,80.6,6.3c60.7-17.8,59.2-118.9,97.5-192.4c65.6-125.8,276.7-226.1,427.8-151.7
				c182,89.5,201.4,395.1,103.5,489.3c-58,55.8-161.8,41.8-167.4,82.4c-5.7,40.8,98.3,63,105.6,128.4
				c7.5,67.8-94.4,129.2-100.6,132.8c-123.6,72.7-220.8-2.5-356.4,31C2065,2539.5,1969.2,2592.4,1875.8,2747.2z"/>
			<g>
				<defs>
					<path id="SVGID_5_" d="M1875.8,2747.2c-46.7-227.8-40.2-404.3-26.6-519.4c10.7-90.4,34.5-216.7,98.8-232.6
						c30.8-7.6,48.4,15.7,80.6,6.3c60.7-17.8,59.2-118.9,97.5-192.4c65.6-125.8,276.7-226.1,427.8-151.7
						c182,89.5,201.4,395.1,103.5,489.3c-58,55.8-161.8,41.8-167.4,82.4c-5.7,40.8,98.3,63,105.6,128.4
						c7.5,67.8-94.4,129.2-100.6,132.8c-123.6,72.7-220.8-2.5-356.4,31C2065,2539.5,1969.2,2592.4,1875.8,2747.2z"/>
				</defs>
				<linearGradient id="SVGID_6_" gradientUnits="userSpaceOnUse" x1="2547.4221" y1="1620.0911" x2="1933.3213" y2="2827.592">
					<stop  offset="0" style="stop-color:#FFC444"/>
					<stop  offset="0.9964" style="stop-color:#F36F56"/>
				</linearGradient>
				<use xlink:href="#SVGID_5_"  style="overflow:visible;fill:url(#SVGID_6_);"/>
				<clipPath id="SVGID_7_">
					<use xlink:href="#SVGID_5_"  style="overflow:visible;"/>
				</clipPath>
				<g class="st4">
					<g>
						<path class="st0" d="M1850.3,2931.4l3.5,0.1c20.3-545.1,361.7-1019.1,913.4-1267.9l-1.5-3.2
							c-261.5,117.9-484,293.4-643.5,507.4C1954.5,2392.8,1860.5,2656.8,1850.3,2931.4z"/>
						<path class="st0" d="M1683.3,2140.8c99.9,110.8,196.9,327.2,216.3,482.2l3.5-0.4c-19.5-155.7-116.9-372.9-217.2-484.2
							L1683.3,2140.8z"/>
						<path class="st0" d="M1855.5,2824.5l3.4,1.1c25.4-77.2,88.8-138.5,188.5-182.4c73.1-32.2,163.7-54.3,269.1-65.9l-0.4-3.5
							c-105.8,11.6-196.7,33.9-270.2,66.2C1945.3,2684.3,1881.2,2746.3,1855.5,2824.5z"/>
						<path class="st0" d="M2146.1,2138.3l3.3,1.3c55.4-143,17.7-299.8-23.6-406.1l-3.3,1.3
							C2163.6,1840.5,2201,1996.4,2146.1,2138.3z"/>
						<path class="st0" d="M2392.2,1888.1l1.7,3.1c152.5-81.1,331.4-51.8,424.5-27.2l0.9-3.4
							C2725.8,1835.9,2545.8,1806.5,2392.2,1888.1z"/>
					</g>
				</g>
			</g>
		</g>
		<g>
			<g>
				<g>
					<linearGradient id="SVGID_8_" gradientUnits="userSpaceOnUse" x1="1496.7101" y1="1877.3317" x2="1068.052" y2="1924.0941">
						<stop  offset="0" style="stop-color:#444B8C"/>
						<stop  offset="0.9964" style="stop-color:#26264F"/>
					</linearGradient>
					<path class="st5" d="M2008.5,797.3l261.1,2170.6c3.9,32.5-18.5,61.7-49.9,64.8l-1087.7,119.4c-66.6,4.1-103.1-29.9-107.2-64.5
						L750.7,780c-4.1-34.4,28.6-65.6,95.5-65.6l1097.6,23.1C1975.5,738,2004.7,765,2008.5,797.3z"/>
					<linearGradient id="SVGID_9_" gradientUnits="userSpaceOnUse" x1="1874.3983" y1="796.8135" x2="814.451" y2="4405.3193">
						<stop  offset="0" style="stop-color:#444B8C"/>
						<stop  offset="0.9964" style="stop-color:#26264F"/>
					</linearGradient>
					<path class="st6" d="M2057.5,793.6l262.6,2181.5c3.9,32.7-18.6,62-50.1,65.2l-1127.6,112.3c-35.4,3.5-67.8-22.1-71.9-56.8
						L794.7,776c-4.1-34.6,21.9-62.4,57.6-61.8l1140.1,19.2C2024.4,734,2053.6,761.1,2057.5,793.6z"/>
					<linearGradient id="SVGID_10_" gradientUnits="userSpaceOnUse" x1="779.7754" y1="1813.2767" x2="1845.4445" y2="2037.2716">
						<stop  offset="3.597120e-03" style="stop-color:#E38DDD"/>
						<stop  offset="1" style="stop-color:#9571F6"/>
					</linearGradient>
					<path class="st7" d="M2036.1,913.9l243.4,2022.6c3.7,30.6-17.4,57.9-46.9,60.8L1172,3100.4c-32.9,3.2-63-20.7-66.8-53.1
						L850.4,904.6c-3.8-32.2,20.3-58.3,53.5-57.9l1071.4,11.4C2005.1,858.4,2032.4,883.5,2036.1,913.9z"/>
					<linearGradient id="SVGID_11_" gradientUnits="userSpaceOnUse" x1="1477.2112" y1="707.9331" x2="231.4857" y2="4081.7725">
						<stop  offset="0" style="stop-color:#311944"/>
						<stop  offset="1" style="stop-color:#893976"/>
					</linearGradient>
					<path class="st8" d="M1467.4,792.1c1.4,11.6-6.9,20.9-18.6,20.8c-11.7-0.1-22.3-9.7-23.7-21.3c-1.4-11.6,7-20.9,18.7-20.8
						C1455.4,770.9,1466,780.5,1467.4,792.1z"/>
					<g class="st9">
						<path class="st0" d="M1852.8,2271.7c-217.1-401.4-541.4-521.6-639.1-935.3c-52.8-223.6-16.8-437.6,43.7-615.3l-405.1-6.8
							c-35.7-0.6-61.7,27.2-57.6,61.8l275.7,2319.6c4.1,34.8,36.5,60.4,71.9,56.8l886.4-88.3
							C2035.3,2704.6,1949.5,2450.6,1852.8,2271.7z"/>
					</g>
				</g>
			</g>
			<g class="st10">
				<g>
					<path class="st0" d="M1911.8,1995c-1.2-11.6-10.5-21.3-20.8-21l-606.9,16.2c-10.9,0.3-18.7,10.8-17.4,22.6l7,66.2
						c1.3,11.9,11.1,21.2,21.9,20.9l606.2-18.9c10.3-0.3,17.7-10,16.5-21.5L1911.8,1995z"/>
					<path class="st0" d="M1866.7,2136.9c-1.2-11.6-10.5-20.8-20.9-20.4l-481.3,15.7c-10.8,0.4-18.6,10.3-17.3,22.1l33.3,316.6
						c1.2,11.8,11,20.9,21.7,20.4l479.5-22.8c10.3-0.5,17.7-10.3,16.6-21.8L1866.7,2136.9z M1726.4,2377.5
						c1.5,14.9-8.1,26.5-21.6,27.1l-135.8,6c-13.6,0.6-25.9-10.1-27.4-25.1l-15.8-151.7c-1.6-15,8.2-28.4,21.8-28.9l136.1-4.9
						c13.5-0.5,25.6,12,27.2,26.9L1726.4,2377.5z"/>
					<g>
						<path class="st0" d="M1610.2,2380.8c-4.9,0.2-9.9-1.6-14.1-5.6l-39.8-37.9c-8.3-7.9-9.7-21.2-3.1-29.7c6.6-8.5,18.7-9,27-1.1
							l24.8,23.6l61.5-79.6c6.5-8.5,18.5-8.9,26.7-1c8.2,7.9,9.6,21.1,3.1,29.6l-73.3,95C1619.7,2378.4,1615.1,2380.6,1610.2,2380.8
							z"/>
					</g>
				</g>
				<path class="st0" d="M1894.7,1341h-750.1c-51.1,0-90.2,41.4-84.6,94l21.7,202.9c5.6,52.5,53.6,95.4,104.5,94.6l747-12
					c47.6-0.8,82.6-42.7,77.5-93.2l-19.7-195.7C1985.8,1381,1942.6,1341,1894.7,1341z"/>
			</g>
		</g>
		<g>
			<linearGradient id="SVGID_12_" gradientUnits="userSpaceOnUse" x1="2856.4087" y1="2266.3887" x2="2809.4373" y2="1984.5593">
				<stop  offset="0" style="stop-color:#FF9085"/>
				<stop  offset="1" style="stop-color:#FB6FBB"/>
			</linearGradient>
			<path class="st11" d="M2759.4,1701.3c0,0-20.8,154.5,142,263.4l-173.2,41.3c0,0-55.4-103.7-15.3-275.4L2759.4,1701.3z"/>
			<linearGradient id="SVGID_13_" gradientUnits="userSpaceOnUse" x1="2746.5149" y1="1683.6195" x2="2753.6912" y2="1788.001">
				<stop  offset="3.597000e-03" style="stop-color:#F36F56"/>
				<stop  offset="1" style="stop-color:#FFC444"/>
			</linearGradient>
			<path class="st12" d="M2728.9,1730.6c0,0-9.3-23-7.8-33.4c1.5-10.4,26.2-24.2,43-38.5c16.8-14.3-0.6,14.4-4.5,20.9
				c-3.9,6.5-17.6,16.3-15.7,38.5L2728.9,1730.6z"/>
			<g>
				<g>
					
						<rect x="1958.6" y="1056.1" transform="matrix(0.5989 -0.8008 0.8008 0.5989 -175.7673 2551.6763)" class="st0" width="1001.8" height="790.5"/>
					<g>
						<g>
							<g>
								<path class="st13" d="M2459.8,1127.2l-111.5-83.4l83.4-111.5l111.5,83.4L2459.8,1127.2z M2383.2,1038.8l71.7,53.6l53.6-71.7
									l-71.7-53.6L2383.2,1038.8z"/>
							</g>
							
								<rect x="2702.6" y="1010.5" transform="matrix(0.5989 -0.8008 0.8008 0.5989 98.1134 2689.1223)" class="st13" width="62.1" height="472.3"/>
						</g>
						<g>
							<g>
								<path class="st13" d="M2328.8,1302.3l-111.5-83.4l83.4-111.5l111.5,83.4L2328.8,1302.3z M2252.1,1213.9l71.7,53.6l53.6-71.7
									l-71.7-53.6L2252.1,1213.9z"/>
							</g>
							
								<rect x="2571.6" y="1185.6" transform="matrix(0.5989 -0.8008 0.8008 0.5989 -94.7139 2654.4636)" class="st13" width="62.1" height="472.3"/>
						</g>
						<g>
							<g>
								<path class="st13" d="M2197.8,1477.5l-111.5-83.4l83.4-111.5l111.5,83.4L2197.8,1477.5z M2121.1,1389.1l71.7,53.6l53.6-71.7
									l-71.7-53.6L2121.1,1389.1z"/>
							</g>
							
								<rect x="2440.6" y="1360.8" transform="matrix(0.5989 -0.8008 0.8008 0.5989 -287.5415 2619.804)" class="st13" width="62.1" height="472.3"/>
						</g>
						<g>
							<g>
								<path class="st13" d="M2066.8,1652.7l-111.5-83.4l83.4-111.5l111.5,83.4L2066.8,1652.7z M1990.1,1564.3l71.7,53.6l53.6-71.7
									l-71.7-53.6L1990.1,1564.3z"/>
							</g>
							
								<rect x="2309.6" y="1536" transform="matrix(0.5989 -0.8008 0.8008 0.5989 -480.3688 2585.145)" class="st13" width="62.1" height="472.3"/>
						</g>
					</g>
				</g>
				<g>
					
						<linearGradient id="SVGID_14_" gradientUnits="userSpaceOnUse" x1="3769.9563" y1="-524.5939" x2="3921.594" y2="-524.5939" gradientTransform="matrix(0.8008 0.5989 -0.5989 0.8008 -944.7401 -857.882)">
						<stop  offset="0" style="stop-color:#AA80F9"/>
						<stop  offset="0.9964" style="stop-color:#6165D7"/>
					</linearGradient>
					<path class="st14" d="M2379.2,1057.5c-0.1,0-0.1-0.1-0.2-0.1c-2.9-2.2-4.8-5.3-5-8.9l-2.5-41.3c-0.4-6.9,4.8-12.7,11.6-13.1
						c6.9-0.4,12.7,4.9,13.1,11.7l1.6,27.2l132.7-26.4c6.7-1.3,13.3,3,14.6,9.8c1.3,6.7-3,13.3-9.8,14.6l-146.6,28.9
						C2385.4,1060.7,2382,1059.7,2379.2,1057.5z"/>
				</g>
				<g>
					
						<linearGradient id="SVGID_15_" gradientUnits="userSpaceOnUse" x1="3769.9475" y1="-79.6293" x2="3921.5852" y2="-79.6293" gradientTransform="matrix(0.8008 0.5989 -0.5989 0.8008 -944.7401 -857.882)">
						<stop  offset="0" style="stop-color:#AA80F9"/>
						<stop  offset="0.9964" style="stop-color:#6165D7"/>
					</linearGradient>
					<path class="st15" d="M2112.7,1413.9c-0.1,0-0.1-0.1-0.2-0.1c-2.9-2.2-4.8-5.3-5-8.9l-2.5-41.3c-0.4-6.9,4.8-12.7,11.6-13.1
						c6.9-0.4,12.7,4.9,13.1,11.7l1.6,27.2l132.7-26.4c6.7-1.3,13.3,3,14.6,9.8c1.3,6.7-3,13.3-9.8,14.6l-146.6,28.9
						C2118.9,1417,2115.5,1416,2112.7,1413.9z"/>
				</g>
				<g>
					
						<linearGradient id="SVGID_16_" gradientUnits="userSpaceOnUse" x1="3769.9434" y1="136.6384" x2="3921.5811" y2="136.6384" gradientTransform="matrix(0.8008 0.5989 -0.5989 0.8008 -944.7401 -857.882)">
						<stop  offset="0" style="stop-color:#AA80F9"/>
						<stop  offset="0.9964" style="stop-color:#6165D7"/>
					</linearGradient>
					<path class="st16" d="M1983.2,1587.1c-0.1,0-0.1-0.1-0.2-0.1c-2.9-2.2-4.8-5.3-5-8.9l-2.5-41.3c-0.4-6.9,4.8-12.7,11.6-13.1
						c6.9-0.4,12.7,4.9,13.1,11.7l1.6,27.2l132.7-26.4c6.7-1.3,13.3,3,14.6,9.8c1.3,6.7-3,13.3-9.8,14.6l-146.6,28.9
						C1989.4,1590.2,1986,1589.2,1983.2,1587.1z"/>
				</g>
				<g>
					<g>
						
							<linearGradient id="SVGID_17_" gradientUnits="userSpaceOnUse" x1="3784.8682" y1="-299.0002" x2="3911.6443" y2="-299.0002" gradientTransform="matrix(0.8008 0.5989 -0.5989 0.8008 -944.7401 -857.882)">
							<stop  offset="0" style="stop-color:#FF9085"/>
							<stop  offset="1" style="stop-color:#FB6FBB"/>
						</linearGradient>
						<path class="st17" d="M2318.9,1288.7c-2.5-1.9-4.4-4.8-4.9-8.2l-20.6-142.7c-1-6.8,3.7-13.1,10.5-14.1
							c6.8-1,13.1,3.7,14.1,10.5l20.6,142.7c1,6.8-3.7,13.1-10.5,14.1C2324.7,1291.5,2321.4,1290.6,2318.9,1288.7z"/>
					</g>
					<g>
						
							<linearGradient id="SVGID_18_" gradientUnits="userSpaceOnUse" x1="-4349.4131" y1="-299.242" x2="-4222.6328" y2="-299.242" gradientTransform="matrix(-0.8008 -0.5989 -0.5989 0.8008 -1295.4484 -1119.8668)">
							<stop  offset="0" style="stop-color:#FF9085"/>
							<stop  offset="1" style="stop-color:#FB6FBB"/>
						</linearGradient>
						<path class="st18" d="M2237.2,1227.6c-2.5-1.9-4.4-4.8-4.9-8.2c-1-6.8,3.7-13.1,10.5-14.1l142.7-20.6
							c6.8-1,13.1,3.7,14.1,10.5c1,6.8-3.7,13.1-10.5,14.1l-142.7,20.6C2243.1,1230.5,2239.8,1229.5,2237.2,1227.6z"/>
					</g>
				</g>
			</g>
			
				<linearGradient id="SVGID_19_" gradientUnits="userSpaceOnUse" x1="2859.3567" y1="1773.6493" x2="2850.5481" y2="1667.9434" gradientTransform="matrix(0.9986 5.370000e-02 -5.370000e-02 0.9986 185.5795 -55.8024)">
				<stop  offset="3.597000e-03" style="stop-color:#26264F"/>
				<stop  offset="1" style="stop-color:#444B8C"/>
			</linearGradient>
			<path class="st19" d="M2920.4,1852.9c-7.3-14.4-10.3-14.3-12.1-21.9c-4.1-17.3,6.5-39.4,15.5-39.7c5.8-0.2,6.3,8.8,18.5,22.8
				c15,17.2,24.1,14.9,32.9,29.8c2.1,3.5,11.4,19.2,5.6,30.9c-7.3,14.9-36,17.3-48.1,5.8C2927,1875.1,2929.4,1870.7,2920.4,1852.9z"
				/>
			
				<linearGradient id="SVGID_20_" gradientUnits="userSpaceOnUse" x1="2829.2651" y1="1590.0946" x2="2839.0508" y2="1952.1514" gradientTransform="matrix(0.9986 5.370000e-02 -5.370000e-02 0.9986 185.5795 -55.8024)">
				<stop  offset="3.597000e-03" style="stop-color:#F36F56"/>
				<stop  offset="1" style="stop-color:#FFC444"/>
			</linearGradient>
			<path class="st20" d="M2947.8,1866.3c0,0-6,31.8-1.7,57.7c3.8,23.4,47.2,47.7,55.5,54.7c8.3,7-22,14.5-49.9,10.9
				c-27.8-3.6-104.1-28-115.6-41.6c-11.6-13.6,13.5-6.9,34.6-9.5c21.1-2.6,41.2-37.9,41.8-55.9
				C2913.1,1864.6,2947.8,1866.3,2947.8,1866.3z"/>
			<g>
				
					<linearGradient id="SVGID_21_" gradientUnits="userSpaceOnUse" x1="-280.0736" y1="1391.1525" x2="-196.9947" y2="1478.722" gradientTransform="matrix(-0.966 -0.2584 -0.2584 0.966 3092.8628 402.9503)">
					<stop  offset="3.597000e-03" style="stop-color:#F36F56"/>
					<stop  offset="1" style="stop-color:#FFC444"/>
				</linearGradient>
				<path class="st21" d="M2934.1,1888.9c0,0-18.3,8.1-34.6-4.9c-14.5-11.6,7.1-47.3,21.9-47.8c4.9-0.2,12.1,3.4,16.4,8.6
					c2.5,3.1,2.7,5.1,6.9,10c3.9,4.5,5.6,4.9,6.2,7.1c0.7,2.8-0.5,7.3-10.5,15.3c5-0.9,9.2,0.4,10.9,3.3c0.3,0.5,0.8,1.9,0.6,3.4
					C2951.3,1889.2,2944.3,1891.7,2934.1,1888.9z"/>
			</g>
			<linearGradient id="SVGID_22_" gradientUnits="userSpaceOnUse" x1="2455.5024" y1="1780.9712" x2="2475.7263" y2="1845.557">
				<stop  offset="3.597000e-03" style="stop-color:#F36F56"/>
				<stop  offset="1" style="stop-color:#FFC444"/>
			</linearGradient>
			<path class="st22" d="M2470.4,1779.3c0,0-12.9-1.8-8.9-26.4c3.2-19.3,0.8-25.8-3.8-22.4c-4.6,3.4-5.2,14.6-5.2,14.6
				s-16.6-14.2-23.5-32.8c-6.9-18.6-11.3-2.9-12.7,6.4c-1.5,9.3,9.8,38.2,16.1,43.5c6.4,5.4,15.7,29.1,15.7,29.1L2470.4,1779.3z"/>
			
				<linearGradient id="SVGID_23_" gradientUnits="userSpaceOnUse" x1="-1.744" y1="3262.2849" x2="-66.6275" y2="3048.3442" gradientTransform="matrix(-0.9999 1.380000e-02 1.380000e-02 0.9999 2839.1826 -14.86)">
				<stop  offset="0" style="stop-color:#444B8C"/>
				<stop  offset="0.9964" style="stop-color:#26264F"/>
			</linearGradient>
			<path class="st23" d="M2947.7,3142.5c6.6,13.5,4.8,19.4,3.1,21.9c-4.8,7.5-16.5,0.4-47,4c-3.6,0.4-10.4,1.3-18.9-0.7
				c-7.3-1.7-15.9-5.6-15.5-7.5c0.1-0.7,1.4-1,1.9-1.1c8.5-1.8,61.4-18,61.4-18L2947.7,3142.5z"/>
			
				<linearGradient id="SVGID_24_" gradientUnits="userSpaceOnUse" x1="-57.6765" y1="3220.6233" x2="-57.6765" y2="2876.9258" gradientTransform="matrix(-0.9999 1.380000e-02 1.380000e-02 0.9999 2839.1826 -14.86)">
				<stop  offset="0" style="stop-color:#FFC444"/>
				<stop  offset="0.9964" style="stop-color:#F36F56"/>
			</linearGradient>
			<path class="st24" d="M2951.8,3112.8l-4.7,30.3c0,0-13,9.2-16.4-2c-2.5-8-2.4-29.7-2.4-29.7L2951.8,3112.8z"/>
			
				<linearGradient id="SVGID_25_" gradientUnits="userSpaceOnUse" x1="63.4093" y1="3207.7898" x2="63.4093" y2="2864.0759" gradientTransform="matrix(-0.9999 1.380000e-02 1.380000e-02 0.9999 2839.1826 -14.86)">
				<stop  offset="0" style="stop-color:#FFC444"/>
				<stop  offset="0.9964" style="stop-color:#F36F56"/>
			</linearGradient>
			<polygon class="st25" points="2803.5,3114.8 2816.3,3149.7 2834.8,3146.7 2830.5,3114.5 			"/>
			
				<linearGradient id="SVGID_26_" gradientUnits="userSpaceOnUse" x1="87.3068" y1="3220.783" x2="22.4235" y2="3006.843" gradientTransform="matrix(-0.9999 1.380000e-02 1.380000e-02 0.9999 2839.1826 -14.86)">
				<stop  offset="0" style="stop-color:#444B8C"/>
				<stop  offset="0.9964" style="stop-color:#26264F"/>
			</linearGradient>
			<path class="st26" d="M2822.1,3168.9c9-10.7,17-9.7,18.6-17c1.3-5.8-2.3-12.8-7.6-15.5c-7.5-3.8-16.5,2.1-18.6,3.4
				c-13.9,9-10.1,23.2-23.2,29.3c-2.6,1.2-6.8,2.5-11.2,6.7c-1.9,1.8-6.5,6.1-5.4,9.1c1.3,3.5,9.5,3.3,17.4,3.2
				c9.4-0.1,14.1-0.2,18.7-3C2817,3181.1,2815.1,3177.1,2822.1,3168.9z"/>
			
				<linearGradient id="SVGID_27_" gradientUnits="userSpaceOnUse" x1="-87.372" y1="2478.98" x2="-118.9365" y2="3189.1836" gradientTransform="matrix(-0.9999 1.380000e-02 1.380000e-02 0.9999 2839.1826 -14.86)">
				<stop  offset="0" style="stop-color:#311944"/>
				<stop  offset="1" style="stop-color:#893976"/>
			</linearGradient>
			<path class="st27" d="M3051.1,2388.5c-3.4,70.4-13.5,130.5-25,179.6c-12.3,52.7-19.1,61.7-23.3,98.3
				c-9.3,79.5,16.1,91.5,18.9,181.7c3.1,99.6-25.1,178.1-36.1,208c-9.7,26.2-19.6,47.3-27.1,61.9c-9.3,7.8-23.2,4.4-37.8,1.1
				c-3.5-90.3-8.4-175.4-11.9-265.7c-14.6-136.1-29.1-272.2-43.7-408.3C2927.1,2426.2,2989.1,2407.4,3051.1,2388.5z"/>
			
				<linearGradient id="SVGID_28_" gradientUnits="userSpaceOnUse" x1="-87.372" y1="2478.98" x2="-118.9365" y2="3189.1833" gradientTransform="matrix(-0.9999 1.380000e-02 1.380000e-02 0.9999 2839.1826 -14.86)">
				<stop  offset="0" style="stop-color:#311944"/>
				<stop  offset="1" style="stop-color:#893976"/>
			</linearGradient>
			<path class="st28" d="M2920.6,3119c-3.5-90.3-8.4-175.4-11.9-265.7c-14.6-136.1-29.1-272.2-43.7-408.3c62-18.8,124-37.7,186-56.5
				c-0.2,4.7-0.6,9.2-0.8,13.7c-88,73.2-106.2,132.2-106.2,172.8c0,49.2,26.3,74.1,19.5,145.3c-4.8,50.9-20.4,59.5-21.3,105.5
				c-1.3,59.2,23.4,93.1,35.1,127.5c11.3,33.3,14.5,80.3-10,146.4c-3.2,6.8-6.2,12.9-8.9,18.1
				C2949.2,3125.7,2935.3,3122.3,2920.6,3119z"/>
			
				<linearGradient id="SVGID_29_" gradientUnits="userSpaceOnUse" x1="484.2579" y1="2772.6353" x2="-211.4435" y2="2741.012" gradientTransform="matrix(-0.9999 1.380000e-02 1.380000e-02 0.9999 2839.1826 -14.86)">
				<stop  offset="0" style="stop-color:#311944"/>
				<stop  offset="1" style="stop-color:#893976"/>
			</linearGradient>
			<path class="st29" d="M2945.9,2441.1c-55.8,68.3-87.6,132.2-106,176.9c-22.1,53.8-38.1,94.2-33.1,146.4
				c5.5,57.5,31.6,78.2,48.9,127.2c16.8,47.6,25,120.7-18.8,229.6c-11,3.8-22.1,7.6-33.1,11.5c-7.3-29.4-19.2-73.4-36.9-125.8
				c-35.1-103.9-70.1-172.2-79.6-193.4c-33.3-74.8-36.7-208.2,102.1-465.8C2841.6,2378.9,2893.7,2410,2945.9,2441.1z"/>
			<linearGradient id="SVGID_30_" gradientUnits="userSpaceOnUse" x1="2756.2131" y1="1968.3302" x2="2881.4702" y2="2620.7129">
				<stop  offset="0" style="stop-color:#FF9085"/>
				<stop  offset="1" style="stop-color:#FB6FBB"/>
			</linearGradient>
			<path class="st30" d="M2436,1786c14.7-10.3,29.4-20.6,44-30.8c17.9,109.8,58.5,152.9,93,171.8c83.2,45.5,157.5-35.6,316.7-2.5
				c43.9,9.1,120.4,26.1,162.8,88.6c11.1,16.4,15.1,28.9,33.6,146.8c23.7,150.7,24.5,177,21.2,209.4c-6.1,59.4-9.8,95.4-37.2,127.2
				c-72.7,84.6-227.2,41-246.6,35.2c-35.8-10.6-91.4-27.1-113.5-74.4c-10.4-22.3-9.3-42.6,6.7-124c31.7-161.2,35.7-171.6,26.9-189.3
				c-29.8-59.6-124.3-25.5-204.1-80.9C2492.8,2030.7,2440.2,1960.1,2436,1786z"/>
			<linearGradient id="SVGID_31_" gradientUnits="userSpaceOnUse" x1="2654.4556" y1="1987.8671" x2="2779.7126" y2="2640.2502">
				<stop  offset="0" style="stop-color:#FF9085"/>
				<stop  offset="1" style="stop-color:#FB6FBB"/>
			</linearGradient>
			<path class="st31" d="M2896,2510.1c-15.6-32,5.4-61.4-17.6-99.8c-29.3-49-82-32.3-101.8-68.5c-33.9-61.9,99.5-148.1,72.4-246.6
				c-12.9-47-58.1-81-95.9-93.9c-83.8-28.6-138.7,44.3-217.2,21.5c-18.6-5.4-40-16.6-61.6-39.9c19.1,40.3,42.8,64.7,65.2,80.2
				c79.8,55.4,174.3,21.3,204.1,80.9c8.8,17.7,4.8,28.1-26.9,189.3c-16,81.4-17.1,101.7-6.7,124c22.1,47.3,77.7,63.8,113.5,74.4
				c10.6,3.1,61.7,17.6,117.7,16.2C2916.3,2537.7,2902.8,2524.2,2896,2510.1z"/>
		</g>
		<g>
			<path class="st32" d="M1172,840.1c0,168.5-135.8,314.1-303.7,325.4c-168.6,11.3-305.6-117-305.6-286.5s137.1-315.3,305.6-325.5
				C1036.2,543.2,1172,671.6,1172,840.1z"/>
			<linearGradient id="SVGID_32_" gradientUnits="userSpaceOnUse" x1="598.6954" y1="870.2713" x2="1208.0542" y2="870.2713">
				<stop  offset="0" style="stop-color:#FFC444"/>
				<stop  offset="0.9964" style="stop-color:#F36F56"/>
			</linearGradient>
			<path class="st33" d="M1208.1,850.8c0,168.5-135.8,314.1-303.7,325.4c-168.6,11.3-305.6-117-305.6-286.5s137.1-315.3,305.6-325.5
				C1072.3,554,1208.1,682.4,1208.1,850.8z"/>
			<path class="st0" d="M893.6,1035.8c-13.2,0.9-25.5-5.3-32.3-16.3L746.4,835.1c-10.8-17.3-5-41,12.9-52.9
				c17.9-11.9,41.1-7.6,51.9,9.7l79.7,128L996,705.9c9.4-19.2,32.1-28,50.6-19.7c18.5,8.3,25.9,30.6,16.5,49.8l-135.8,276.8
				c-6.2,12.7-18.6,21.4-32.3,22.8C894.5,1035.7,894,1035.8,893.6,1035.8z"/>
		</g>
		<g>
			
				<linearGradient id="SVGID_33_" gradientUnits="userSpaceOnUse" x1="2696.1406" y1="3091.5813" x2="2713.9666" y2="3412.4509" gradientTransform="matrix(-1 0 0 1 3763.5703 0)">
				<stop  offset="0" style="stop-color:#444B8C"/>
				<stop  offset="0.9964" style="stop-color:#26264F"/>
			</linearGradient>
			<path class="st34" d="M1022.8,3205.7c0,0-2.2,17.7-0.7,23.7c1.5,5.9,53.1,10.2,70.6,8.2c17.5-2.1-10.4-19.9-21.6-23.3
				C1059.9,3210.9,1022.8,3205.7,1022.8,3205.7z"/>
			
				<linearGradient id="SVGID_34_" gradientUnits="userSpaceOnUse" x1="2714.834" y1="3194.4817" x2="2741.5271" y2="3194.4817" gradientTransform="matrix(-1 0 0 1 3763.5703 0)">
				<stop  offset="0" style="stop-color:#311944"/>
				<stop  offset="1" style="stop-color:#A03976"/>
			</linearGradient>
			<path class="st35" d="M1048.7,3176.1l-5.4,35.6c0,0-13.9,6.2-20.5,0.1l-0.7-37.2L1048.7,3176.1z"/>
			
				<linearGradient id="SVGID_35_" gradientUnits="userSpaceOnUse" x1="3018.7837" y1="3073.6611" x2="3036.6089" y2="3394.5198" gradientTransform="matrix(-1 0 0 1 3763.5703 0)">
				<stop  offset="0" style="stop-color:#444B8C"/>
				<stop  offset="0.9964" style="stop-color:#26264F"/>
			</linearGradient>
			<path class="st36" d="M758,3174.5c0,0,10.9,8.1,8,17.8c-2.9,9.7-28.4,48.7-46.6,59.7c-18.2,11.1-12.5-12-7.2-26.3
				c5.3-14.4,18.8-46,24.1-51.3C741.6,3169.2,758,3174.5,758,3174.5z"/>
			
				<linearGradient id="SVGID_36_" gradientUnits="userSpaceOnUse" x1="2985.874" y1="3178.0225" x2="3038.9607" y2="3178.0225" gradientTransform="matrix(-1 0 0 1 3763.5703 0)">
				<stop  offset="0" style="stop-color:#311944"/>
				<stop  offset="1" style="stop-color:#A03976"/>
			</linearGradient>
			<path class="st37" d="M777.7,3135.4c-5.3,14.7-10.4,26.9-14.4,35.8c-8.8,19.8-13.6,27.2-19.1,33.6c-4.8,5.6-16,17.6-19,15.6
				c-3.1-2,5.2-16.6,21-59.1c2.3-6.2,9.6-25.9,9.6-25.9l0,0H777.7z"/>
			
				<linearGradient id="SVGID_37_" gradientUnits="userSpaceOnUse" x1="2700.5088" y1="3162.3303" x2="2691.5957" y2="2817.7029" gradientTransform="matrix(-1 0 0 1 3763.5703 0)">
				<stop  offset="0" style="stop-color:#311944"/>
				<stop  offset="1" style="stop-color:#893976"/>
			</linearGradient>
			<path class="st38" d="M1156.7,2519.3c3.8,37.1,7.4,94.6,2,164.4c-7.1,91-25.2,148.5-48.1,245.5c-13.9,59.3-32.7,146.5-49.7,255.6
				c-3.9,2.3-15.5,8.2-30.5,6c-8.4-1.2-14.6-4.6-18.3-7c-44.6-136.3-31.4-220.7-9.9-273.3c9.2-22.4,20.3-40.1,26.2-74.6
				c7.9-45.6-1.9-71.1-15.7-176.8c-9.9-75.3-8.2-86.9-1.6-98.2C1037.5,2515.7,1117.9,2516.6,1156.7,2519.3z"/>
			
				<linearGradient id="SVGID_38_" gradientUnits="userSpaceOnUse" x1="2898.667" y1="3157.2058" x2="2889.7539" y2="2812.5784" gradientTransform="matrix(-1 0 0 1 3763.5703 0)">
				<stop  offset="0" style="stop-color:#311944"/>
				<stop  offset="1" style="stop-color:#893976"/>
			</linearGradient>
			<path class="st39" d="M1003.2,2535.2c-27.3,141.1-54.1,215.2-74.4,257.1c-5,10.3-21.7,43.7-37.5,91.5
				c-14,42.3-19.8,73.4-22.8,87.1c-9.4,43.2-32.7,106.4-95.3,189.2c-0.8,0.5-11.5,6.5-21.7,1.1c-5.2-2.7-7.7-7.1-8.8-9.1
				c8.2-79.2,17.6-145.7,25.7-197.1c1.7-10.8,9.3-57.9,21.1-120.1c4.6-24.4,11.4-60.1,19.5-96.7c10.1-45.7,25.6-107.8,49.5-182.2
				C906.8,2549,955,2542.1,1003.2,2535.2z"/>
			
				<linearGradient id="SVGID_39_" gradientUnits="userSpaceOnUse" x1="3020.3147" y1="2294.5449" x2="2895.5361" y2="2117.7754" gradientTransform="matrix(-1 0 0 1 3763.5703 0)">
				<stop  offset="0" style="stop-color:#444B8C"/>
				<stop  offset="0.9964" style="stop-color:#26264F"/>
			</linearGradient>
			<path class="st40" d="M1026.5,1977.1c15.5-14.3,45.1-30.8,60-69.2c4.5-11.6,20.3-52.5-3.1-83.8c-13.9-18.6-39.7-31.2-62.4-26.7
				c-19.4,3.8-22.5,17.3-55.5,44.6c-12.8,10.6-33.5,27.6-56.5,37.1c-39.4,16.2-63,1-102.5,2.7c-48.6,2.1-105,29.2-132.1,68.6
				c-48.2,69.9,21.6,140.9-31.2,222.8c-17.3,26.8-25.8,20.8-66.8,72.8c-41.1,52-61.6,78-57.9,109.9c5.1,44.2,52.7,86.5,97.6,89.4
				c43.8,2.8,71.7-31.7,94-16.6c15.9,10.7,6.8,31.6,23.7,56.7c21.7,32.4,64.5,38.8,71.4,39.8c64.1,9.7,150.5-65.5,187.2-154.5
				C1058.5,2210.2,942.3,2055,1026.5,1977.1z"/>
			<linearGradient id="SVGID_40_" gradientUnits="userSpaceOnUse" x1="1124.7104" y1="2241.7595" x2="452.7826" y2="2631.9114">
				<stop  offset="0" style="stop-color:#FFC444"/>
				<stop  offset="0.9964" style="stop-color:#F36F56"/>
			</linearGradient>
			<path class="st41" d="M1289.4,2021.7c0.4-44.8-101.3-80.6-147.9-92.2c-72.4-17.9-130.5-6.7-144.5-3.7
				c-90.3,19.1-146.6,73.4-167.8,96.1c17.3,11.3,65.2,45.7,88.9,111.1c7.4,20.3,29.2,89.9-2,155c-18,37.5-49.7,65.7-73.8,87.1
				c-36.2,32.1-54.9,37-67,65.8c-13.2,31.3,0.1,46.6-16.3,68c-17.6,23-38.3,12.3-68.1,35.6c-30.6,23.8-19.7,43.5-47.5,69.8
				c-40.4,38.3-94.1,25.9-96.6,43.1c-2.1,14.8,36,34.9,68.3,43.1c64.1,16.1,120-11,136.7-19.3c46-23.1,38.1-38.1,73.2-55.7
				c58.8-29.5,98.9,3.3,232.8,6.7c72.5,1.8,109.2,2.2,129.2-22.3c18.3-22.4,8.7-47-2.3-152.9c-5.2-50.4-7.1-101.1-11-151.6
				c-10.9-142.9-11.3-155.5-1.6-175.3C1206.8,2059.3,1289,2061.9,1289.4,2021.7z"/>
			<g class="st42">
				
					<linearGradient id="SVGID_41_" gradientUnits="userSpaceOnUse" x1="2885.6558" y1="1920.0986" x2="2988.6475" y2="2549.9353" gradientTransform="matrix(-1 0 0 1 3763.5703 0)">
					<stop  offset="0" style="stop-color:#FFC444"/>
					<stop  offset="0.9964" style="stop-color:#F36F56"/>
				</linearGradient>
				<path class="st43" d="M643.3,2614.4c27.8-26.3,16.9-46,47.5-69.8c29.9-23.3,50.5-12.6,68.1-35.6c16.4-21.4,3.1-36.7,16.3-68
					c12.1-28.8,30.9-33.7,67-65.8c24.1-21.4,55.9-49.6,73.8-87.1c31.2-65.1,9.4-134.6,2-155c-23.7-65.4-71.6-99.8-88.9-111.1
					c1.7-1.8,3.6-3.8,5.7-6c114.3,15.7,180.9,81.7,189.1,101.3c19,45.2-11.1,61.8-11.9,192.1c-0.4,62.3,6.3,86.9-13.9,112.9
					c-23.1,29.7-49.8,20.5-83.2,59.4c-25.7,29.9-21.6,48.8-45.6,61.4c-25.8,13.5-42.2-2.2-71.3,4c-48.6,10.4-59,66.4-91.1,97
					c-24.3,23.2-69.2,39.4-157.8,22c-2-3-3-5.9-2.6-8.6C549.2,2640.2,602.8,2652.7,643.3,2614.4z"/>
			</g>
			
				<linearGradient id="SVGID_42_" gradientUnits="userSpaceOnUse" x1="2864.3511" y1="1923.5831" x2="2967.3428" y2="2553.418" gradientTransform="matrix(-1 0 0 1 3763.5703 0)">
				<stop  offset="0" style="stop-color:#FFC444"/>
				<stop  offset="0.9964" style="stop-color:#F36F56"/>
			</linearGradient>
			<path class="st44" d="M989.4,2152.4c12.1,25.8-43.7,85.9-105.7,114.4c-12.6,5.8-103.4,47.5-143.9,7.4
				c-33.4-33.2-11.9-101.7-4.2-126.2c37.8-120.2,154-181.4,202.6-203.4c36.3,90.8,14.9,131.3,6.5,143.9
				c-8.8,13.2-33.3,40.9-59.4,65.4c-18.3,17.2-29.8,25.5-28.2,28.2c1.9,3.3,23.4-3,106.9-43.6
				C973.8,2140.1,985.2,2143.6,989.4,2152.4z"/>
			<linearGradient id="SVGID_43_" gradientUnits="userSpaceOnUse" x1="959.1405" y1="2135.7034" x2="1339.0873" y2="2135.7034">
				<stop  offset="0" style="stop-color:#FF9085"/>
				<stop  offset="1" style="stop-color:#FB6FBB"/>
			</linearGradient>
			<path class="st45" d="M1338.8,2004.2l-41,204c-1.3,6.5-6.4,11.7-12.9,13.1l-305.5,65.6c-10.9,2.3-21.1-6.5-20.2-17.7l16.1-207.5
				c0.6-7.2,5.7-13.2,12.7-15c48.5-12,235-56.8,333.3-62.6C1332.3,1983.5,1340.9,1993.4,1338.8,2004.2z"/>
			
				<linearGradient id="SVGID_44_" gradientUnits="userSpaceOnUse" x1="2029.5715" y1="1296.5446" x2="2008.7762" y2="1351.9989" gradientTransform="matrix(-0.8633 0.5047 0.5047 0.8633 2082.9607 -259.5109)">
				<stop  offset="0" style="stop-color:#311944"/>
				<stop  offset="1" style="stop-color:#A03976"/>
			</linearGradient>
			<path class="st46" d="M1034.1,1855.2c0,0-5.8,46.1-22.8,56.6c-17,10.5-44.5,24.3-47.5,28.1c-3,3.7,105.3,15.4,159-11.7l0,0
				c-17.7-3.7-22.5-5-22.5-5c-4.8-1.4-13.8-3.9-22.7-9c-6.1-3.5-16-10.3-25-23.1l0.2-25.5L1034.1,1855.2z"/>
			
				<linearGradient id="SVGID_45_" gradientUnits="userSpaceOnUse" x1="2022.4923" y1="1226.3501" x2="1952.1824" y2="1313.4948" gradientTransform="matrix(-0.8633 0.5047 0.5047 0.8633 2082.9607 -259.5109)">
				<stop  offset="0" style="stop-color:#311944"/>
				<stop  offset="1" style="stop-color:#A03976"/>
			</linearGradient>
			<path class="st47" d="M1031.5,1871.5c0,0,11.1,15.2,28.5,8.9c15.6-5.7,6.3-45.9-6.1-50.5c-4.1-1.5-11.7-0.9-16.7,2.3
				c-3.6,2.2-13.1,14-7.6,27.2c-3.9-1.1-7.4-0.1-8.3,1.8c-1.1,2.5,2.2,5.8,3,6.6C1026.9,1870.5,1030,1871.3,1031.5,1871.5z"/>
			<linearGradient id="SVGID_46_" gradientUnits="userSpaceOnUse" x1="991.2972" y1="2134.2339" x2="1339.0873" y2="2134.2339">
				<stop  offset="0" style="stop-color:#FF9085"/>
				<stop  offset="1" style="stop-color:#FB6FBB"/>
			</linearGradient>
			<path class="st48" d="M1063.6,2180.6c32.8-9.3,60,13.7,86.2-4.5c26.8-18.6,9.3-50.4,37.1-81.7c29.8-33.4,67.5-17.1,95.1-47.5
				c10.2-11.3,19.4-29.8,19.6-61.2c6.9-0.7,13.5-1.2,19.8-1.6c11-0.7,19.6,9.2,17.4,20l-41,204c-1.3,6.5-6.4,11.7-12.9,13.1
				l-293.6,63C1012,2211.6,1039.7,2187.4,1063.6,2180.6z"/>
			
				<linearGradient id="SVGID_47_" gradientUnits="userSpaceOnUse" x1="2419.9102" y1="2177.7969" x2="2458.5322" y2="1980.7257" gradientTransform="matrix(-1 0 0 1 3763.5703 0)">
				<stop  offset="0" style="stop-color:#311944"/>
				<stop  offset="1" style="stop-color:#A03976"/>
			</linearGradient>
			<path class="st49" d="M1319.3,2112.8c0,0,19.5-18,21.6-38.9c2.1-20.9-12.6-37.7-26.8-41.9c-14.2-4.3-21.9,2-12.3,22.6
				C1311.4,2075.1,1326.5,2088.5,1319.3,2112.8z"/>
		</g>
	</g>
</g>
</svg>
